<svg width="610" height="79" viewBox="0 0 610 79" fill="none" xmlns="http://www.w3.org/2000/svg">
<rect x="-6.10352e-05" y="0.00012207" width="610" height="79" rx="16" fill="#4610AD"/>
<path d="M97.409 59.0001H104.523V57.7501H98.8181V53.7956H104.068V52.5456H98.8181V48.6138H104.432V47.3638H97.409V59.0001ZM110.745 50.2728H108.882V48.1819H107.541V50.2728H106.222V51.4092H107.541V56.8638C107.541 58.3865 108.768 59.1138 109.904 59.1138C110.404 59.1138 110.722 59.0228 110.904 58.9547L110.632 57.7501C110.518 57.7728 110.336 57.8183 110.041 57.8183C109.45 57.8183 108.882 57.6365 108.882 56.5001V51.4092H110.745V50.2728ZM114.451 53.7501C114.451 52.2274 115.422 51.3638 116.746 51.3638C118.007 51.3638 118.769 52.1592 118.769 53.5456V59.0001H120.11V53.4547C120.11 51.2103 118.917 50.1592 117.132 50.1592C115.757 50.1592 114.973 50.7331 114.564 51.6365H114.451V47.3638H113.11V59.0001H114.451V53.7501ZM126.382 59.1819C128.155 59.1819 129.45 58.2956 129.859 56.9774L128.564 56.6138C128.223 57.5228 127.433 57.9774 126.382 57.9774C124.808 57.9774 123.723 56.9603 123.66 55.091H129.996V54.5228C129.996 51.2728 128.064 50.1592 126.246 50.1592C123.882 50.1592 122.314 52.0228 122.314 54.7047C122.314 57.3865 123.859 59.1819 126.382 59.1819ZM123.66 53.9319C123.751 52.574 124.711 51.3638 126.246 51.3638C127.7 51.3638 128.632 52.4547 128.632 53.9319H123.66ZM132.195 59.0001H133.536V53.4774C133.536 52.2956 134.468 51.4319 135.741 51.4319C136.099 51.4319 136.468 51.5001 136.559 51.5228V50.1592C136.406 50.1478 136.053 50.1365 135.854 50.1365C134.809 50.1365 133.9 50.7274 133.582 51.591H133.491V50.2728H132.195V59.0001ZM141.702 59.1819C143.475 59.1819 144.77 58.2956 145.179 56.9774L143.884 56.6138C143.543 57.5228 142.753 57.9774 141.702 57.9774C140.128 57.9774 139.043 56.9603 138.98 55.091H145.316V54.5228C145.316 51.2728 143.384 50.1592 141.566 50.1592C139.202 50.1592 137.634 52.0228 137.634 54.7047C137.634 57.3865 139.179 59.1819 141.702 59.1819ZM138.98 53.9319C139.071 52.574 140.031 51.3638 141.566 51.3638C143.02 51.3638 143.952 52.4547 143.952 53.9319H138.98ZM153.015 55.4319C153.015 57.0683 151.765 57.8183 150.765 57.8183C149.652 57.8183 148.856 57.0001 148.856 55.7274V50.2728H147.515V55.8183C147.515 58.0456 148.697 59.1138 150.334 59.1138C151.652 59.1138 152.515 58.4092 152.924 57.5228H153.015V59.0001H154.356V50.2728H153.015V55.4319ZM156.972 59.0001H158.313V53.5456C158.313 52.2672 159.245 51.3638 160.29 51.3638C161.307 51.3638 162.018 52.0285 162.018 53.0228V59.0001H163.381V53.3183C163.381 52.1933 164.086 51.3638 165.313 51.3638C166.268 51.3638 167.086 51.8694 167.086 53.1592V59.0001H168.427V53.1592C168.427 51.1081 167.324 50.1592 165.768 50.1592C164.518 50.1592 163.603 50.7331 163.154 51.6365H163.063C162.631 50.7047 161.87 50.1592 160.722 50.1592C159.586 50.1592 158.745 50.7047 158.381 51.6365H158.268V50.2728H156.972V59.0001Z" fill="#F2F2F2"/>
<path d="M97.2641 35.0001H107.094V32.4646H100.339V28.9916H106.561V26.4561H100.339V22.9902H107.065V20.4547H97.2641V35.0001ZM108.956 22.9902H113.409V35.0001H116.449V22.9902H120.902V20.4547H108.956V22.9902ZM122.87 35.0001H125.945V28.9916H132.188V35.0001H135.256V20.4547H132.188V26.4561H125.945V20.4547H122.87V35.0001Z" fill="white"/>
<path d="M79.8914 40C79.8914 50.9875 70.9845 59.8947 59.997 59.8947C49.0095 59.8947 40.1024 50.9875 40.1024 40C40.1024 29.0125 49.0095 20.1055 59.997 20.1055C70.9844 20.1055 79.8914 29.0125 79.8914 40Z" fill="#6374C3"/>
<path d="M59.9331 30.769L59.8102 31.1867V43.3064L59.9331 43.4291L65.5589 40.1037L59.9331 30.769Z" fill="white"/>
<path d="M59.9331 30.769L54.3073 40.1037L59.9331 43.4291V37.5466V30.769Z" fill="white"/>
<path d="M59.9326 45.259L59.8633 45.3435V49.6608L59.9326 49.863L65.5618 41.9353L59.9326 45.259Z" fill="white"/>
<path d="M59.9331 49.863V45.259L54.3073 41.9353L59.9331 49.863Z" fill="white"/>
<path d="M59.9334 43.4301L65.5591 40.1047L59.9334 37.5476V43.4301Z" fill="white"/>
<path d="M54.3073 40.1047L59.933 43.4301V37.5476L54.3073 40.1047Z" fill="white"/>
<path d="M225.636 46.4547H226.568V45.1876C228.954 45.0228 230.295 43.6138 230.295 41.841C230.295 39.6592 228.227 38.9547 227.023 38.6365L226.568 38.5115V34.4717C227.773 34.591 228.648 35.2388 228.773 36.2728H230.136C230.079 34.6138 228.625 33.3524 226.568 33.216V31.9092H225.636V33.2331C223.687 33.4319 222.227 34.6706 222.227 36.4547C222.227 38.0228 223.364 38.9547 225.182 39.4774L225.636 39.6081V43.9092C224.443 43.7842 223.466 43.1706 223.364 42.0001H221.909C222.04 43.7899 223.403 45.0399 225.636 45.1876V46.4547ZM226.568 43.9092V39.8751L226.614 39.8865C227.841 40.2274 228.932 40.6592 228.932 41.8183C228.932 42.9603 227.943 43.7558 226.568 43.9092ZM225.636 38.2615C224.773 38.0172 223.591 37.5399 223.591 36.3865C223.591 35.4035 224.386 34.6535 225.636 34.4888V38.2615ZM236.499 33.3638H235.089L232.18 35.2956V36.7274L235.021 34.841H235.089V45.0001H236.499V33.3638ZM243.481 45.1592C245.697 45.1592 247.322 43.5228 247.322 41.2956C247.322 39.0399 245.754 37.3865 243.618 37.3865C242.834 37.3865 242.072 37.6649 241.595 38.0456H241.527L241.936 34.6138H246.8V33.3638H240.754L240.05 39.091L241.368 39.2501C241.851 38.9035 242.675 38.6535 243.391 38.6592C244.874 38.6706 245.959 39.7956 245.959 41.3183C245.959 42.8126 244.913 43.9092 243.481 43.9092C242.288 43.9092 241.339 43.1422 241.231 42.091H239.868C239.953 43.8638 241.481 45.1592 243.481 45.1592ZM253.443 45.1592C255.795 45.1876 257.329 43.4149 257.329 41.2501C257.329 39.0001 255.665 37.3865 253.67 37.3865C252.472 37.3865 251.443 37.9717 250.807 38.9319H250.716C250.722 36.0967 251.824 34.4547 253.625 34.4547C254.852 34.4547 255.591 35.2274 255.852 36.2728H257.239C256.954 34.466 255.579 33.2047 253.625 33.2047C251.006 33.2047 249.398 35.5228 249.398 39.6365C249.398 43.9376 251.534 45.1365 253.443 45.1592ZM253.443 43.9092C251.983 43.9092 250.915 42.6649 250.92 41.2728C250.926 39.8808 252.045 38.6365 253.489 38.6365C254.915 38.6365 255.966 39.8069 255.966 41.2501C255.966 42.7274 254.869 43.9092 253.443 43.9092ZM260.017 45.091C260.579 45.091 261.04 44.6308 261.04 44.0683C261.04 43.5058 260.579 43.0456 260.017 43.0456C259.454 43.0456 258.994 43.5058 258.994 44.0683C258.994 44.6308 259.454 45.091 260.017 45.091ZM266.791 45.1592C269.115 45.1592 270.734 43.8013 270.746 41.9092C270.734 40.4376 269.751 39.1876 268.496 38.9547V38.8865C269.587 38.6024 270.302 37.5342 270.314 36.2956C270.302 34.5228 268.814 33.2047 266.791 33.2047C264.746 33.2047 263.257 34.5228 263.268 36.2956C263.257 37.5342 263.973 38.6024 265.087 38.8865V38.9547C263.808 39.1876 262.825 40.4376 262.837 41.9092C262.825 43.8013 264.445 45.1592 266.791 45.1592ZM266.791 43.9092C265.195 43.9092 264.212 43.091 264.223 41.841C264.212 40.5285 265.297 39.591 266.791 39.591C268.263 39.591 269.348 40.5285 269.359 41.841C269.348 43.091 268.365 43.9092 266.791 43.9092ZM266.791 38.3865C265.518 38.3865 264.621 37.591 264.632 36.3865C264.621 35.2047 265.484 34.4319 266.791 34.4319C268.075 34.4319 268.939 35.2047 268.95 36.3865C268.939 37.591 268.041 38.3865 266.791 38.3865ZM276.855 45.1592C279.111 45.1592 280.787 43.7444 280.787 41.841C280.787 40.3638 279.912 39.2899 278.446 39.0456V38.9547C279.622 38.5967 280.355 37.6308 280.355 36.3183C280.355 34.6706 279.054 33.2047 276.901 33.2047C274.889 33.2047 273.219 34.4433 273.151 36.2728H274.514C274.565 35.1138 275.668 34.4319 276.878 34.4319C278.162 34.4319 278.991 35.2103 278.991 36.3865C278.991 37.6138 278.031 38.4092 276.651 38.4092H275.719V39.6592H276.651C278.418 39.6592 279.401 40.5569 279.401 41.841C279.401 43.074 278.327 43.9092 276.832 43.9092C275.486 43.9092 274.418 43.216 274.332 42.091H272.901C272.986 43.9206 274.599 45.1592 276.855 45.1592Z" fill="#F2F2F2"/>
<circle opacity="0.1" cx="350" cy="40.0001" r="8" fill="#FF7676"/>
<path d="M353.207 37.9298H346.793C346.6 37.9298 346.493 38.1329 346.612 38.2716L349.819 41.9904C349.911 42.0968 350.088 42.0968 350.181 41.9904L353.388 38.2716C353.507 38.1329 353.399 37.9298 353.207 37.9298Z" fill="#FF7676"/>
<path d="M372.227 38.5569H367.136V39.8069H372.227V38.5569ZM378.359 45.1592C380.927 45.1592 382.405 42.9831 382.405 39.1819C382.405 35.4092 380.905 33.2047 378.359 33.2047C375.814 33.2047 374.314 35.4092 374.314 39.1819C374.314 42.9831 375.791 45.1592 378.359 45.1592ZM378.359 43.9092C376.666 43.9092 375.677 42.2103 375.677 39.1819C375.677 36.1592 376.677 34.4319 378.359 34.4319C380.041 34.4319 381.041 36.1592 381.041 39.1819C381.041 42.2103 380.052 43.9092 378.359 43.9092ZM385.158 45.091C385.72 45.091 386.18 44.6308 386.18 44.0683C386.18 43.5058 385.72 43.0456 385.158 43.0456C384.595 43.0456 384.135 43.5058 384.135 44.0683C384.135 44.6308 384.595 45.091 385.158 45.091ZM392.159 33.2047C389.795 33.1763 388.273 34.9547 388.273 37.091C388.273 39.341 389.932 40.9547 391.932 40.9547C393.136 40.9547 394.159 40.3638 394.795 39.4092H394.886C394.886 42.2728 393.773 43.9092 391.977 43.9092C390.75 43.9092 390 43.1365 389.75 42.0683H388.364C388.636 43.9092 390.023 45.1592 391.977 45.1592C394.591 45.1592 396.204 42.841 396.204 38.7047C396.204 34.4319 394.068 33.2274 392.159 33.2047ZM392.159 34.4547C393.614 34.4547 394.682 35.7047 394.682 37.0683C394.682 38.4547 393.545 39.7047 392.114 39.7047C390.682 39.7047 389.636 38.5456 389.636 37.091C389.636 35.6365 390.727 34.4547 392.159 34.4547ZM404.371 42.8183C404.371 44.091 405.166 45.1592 406.643 45.1592C408.098 45.1592 408.893 44.091 408.893 42.8183V42.2047C408.893 40.9319 408.121 39.8638 406.643 39.8638C405.189 39.8638 404.371 40.9319 404.371 42.2047V42.8183ZM398.575 36.1592C398.575 37.4319 399.371 38.5001 400.848 38.5001C402.302 38.5001 403.098 37.4319 403.098 36.1592V35.5456C403.098 34.2728 402.325 33.2047 400.848 33.2047C399.393 33.2047 398.575 34.2728 398.575 35.5456V36.1592ZM399.007 45.0001H400.302L408.302 33.3638H407.007L399.007 45.0001ZM405.53 42.2047C405.53 41.5001 405.848 40.841 406.643 40.841C407.462 40.841 407.734 41.5001 407.734 42.2047V42.8183C407.734 43.5228 407.439 44.1819 406.643 44.1819C405.825 44.1819 405.53 43.5228 405.53 42.8183V42.2047ZM399.734 35.5456C399.734 34.841 400.052 34.1819 400.848 34.1819C401.666 34.1819 401.939 34.841 401.939 35.5456V36.1592C401.939 36.8638 401.643 37.5228 400.848 37.5228C400.03 37.5228 399.734 36.8638 399.734 36.1592V35.5456Z" fill="#FF7676"/>
<path d="M487.636 46.4547H488.568V45.1876C490.954 45.0228 492.295 43.6138 492.295 41.841C492.295 39.6592 490.227 38.9547 489.023 38.6365L488.568 38.5115V34.4717C489.773 34.591 490.648 35.2388 490.773 36.2728H492.136C492.079 34.6138 490.625 33.3524 488.568 33.216V31.9092H487.636V33.2331C485.687 33.4319 484.227 34.6706 484.227 36.4547C484.227 38.0228 485.364 38.9547 487.182 39.4774L487.636 39.6081V43.9092C486.443 43.7842 485.466 43.1706 485.364 42.0001H483.909C484.04 43.7899 485.403 45.0399 487.636 45.1876V46.4547ZM488.568 43.9092V39.8751L488.614 39.8865C489.841 40.2274 490.932 40.6592 490.932 41.8183C490.932 42.9603 489.943 43.7558 488.568 43.9092ZM487.636 38.2615C486.773 38.0172 485.591 37.5399 485.591 36.3865C485.591 35.4035 486.386 34.6535 487.636 34.4888V38.2615ZM498.499 33.3638H497.089L494.18 35.2956V36.7274L497.021 34.841H497.089V45.0001H498.499V33.3638ZM505.572 45.1592C507.896 45.1592 509.516 43.8013 509.527 41.9092C509.516 40.4376 508.533 39.1876 507.277 38.9547V38.8865C508.368 38.6024 509.084 37.5342 509.095 36.2956C509.084 34.5228 507.595 33.2047 505.572 33.2047C503.527 33.2047 502.038 34.5228 502.05 36.2956C502.038 37.5342 502.754 38.6024 503.868 38.8865V38.9547C502.589 39.1876 501.606 40.4376 501.618 41.9092C501.606 43.8013 503.226 45.1592 505.572 45.1592ZM505.572 43.9092C503.976 43.9092 502.993 43.091 503.004 41.841C502.993 40.5285 504.078 39.591 505.572 39.591C507.044 39.591 508.129 40.5285 508.141 41.841C508.129 43.091 507.146 43.9092 505.572 43.9092ZM505.572 38.3865C504.3 38.3865 503.402 37.591 503.413 36.3865C503.402 35.2047 504.266 34.4319 505.572 34.4319C506.856 34.4319 507.72 35.2047 507.731 36.3865C507.72 37.591 506.822 38.3865 505.572 38.3865ZM515.795 33.3638H514.386L511.477 35.2956V36.7274L514.318 34.841H514.386V45.0001H515.795V33.3638ZM519.142 45.0001H526.483V43.7501H521.074V43.6592L523.687 40.8638C525.687 38.7217 526.278 37.7217 526.278 36.4319C526.278 34.6365 524.824 33.2047 522.778 33.2047C520.739 33.2047 519.187 34.591 519.187 36.6365H520.528C520.528 35.3126 521.386 34.4319 522.733 34.4319C523.994 34.4319 524.96 35.2047 524.96 36.4319C524.96 37.5058 524.329 38.3013 522.983 39.7728L519.142 43.9774V45.0001ZM532.761 45.1592C535.017 45.1592 536.693 43.7444 536.693 41.841C536.693 40.3638 535.818 39.2899 534.352 39.0456V38.9547C535.528 38.5967 536.261 37.6308 536.261 36.3183C536.261 34.6706 534.96 33.2047 532.807 33.2047C530.795 33.2047 529.125 34.4433 529.057 36.2728H530.42C530.472 35.1138 531.574 34.4319 532.784 34.4319C534.068 34.4319 534.898 35.2103 534.898 36.3865C534.898 37.6138 533.937 38.4092 532.557 38.4092H531.625V39.6592H532.557C534.324 39.6592 535.307 40.5569 535.307 41.841C535.307 43.074 534.233 43.9092 532.739 43.9092C531.392 43.9092 530.324 43.216 530.239 42.091H528.807C528.892 43.9206 530.506 45.1592 532.761 45.1592ZM542.653 45.1592C544.869 45.1592 546.494 43.5228 546.494 41.2956C546.494 39.0399 544.926 37.3865 542.79 37.3865C542.006 37.3865 541.244 37.6649 540.767 38.0456H540.699L541.108 34.6138H545.972V33.3638H539.926L539.222 39.091L540.54 39.2501C541.023 38.9035 541.847 38.6535 542.562 38.6592C544.045 38.6706 545.131 39.7956 545.131 41.3183C545.131 42.8126 544.085 43.9092 542.653 43.9092C541.46 43.9092 540.511 43.1422 540.403 42.091H539.04C539.125 43.8638 540.653 45.1592 542.653 45.1592ZM552.547 45.1592C555.115 45.1592 556.592 42.9831 556.592 39.1819C556.592 35.4092 555.092 33.2047 552.547 33.2047C550.001 33.2047 548.501 35.4092 548.501 39.1819C548.501 42.9831 549.979 45.1592 552.547 45.1592ZM552.547 43.9092C550.854 43.9092 549.865 42.2103 549.865 39.1819C549.865 36.1592 550.865 34.4319 552.547 34.4319C554.229 34.4319 555.229 36.1592 555.229 39.1819C555.229 42.2103 554.24 43.9092 552.547 43.9092Z" fill="#F2F2F2"/>
</svg>
