<svg width="169" height="84" viewBox="0 0 169 84" fill="none" xmlns="http://www.w3.org/2000/svg">
<rect width="169" height="84" rx="16" fill="#491F98"/>
<path d="M50.3222 41.1818H52.3336L52.3506 39.2131C56.041 38.9318 58.1802 36.9716 58.1887 34.0142C58.1802 31.108 55.9898 29.5653 52.9558 28.8835L52.4529 28.7642L52.487 24.5028C53.6205 24.767 54.3109 25.4915 54.4131 26.5653H57.9501C57.9075 23.7443 55.8023 21.7244 52.5211 21.3665L52.5381 19.3636H50.5268L50.5097 21.3494C47.1773 21.6733 44.8251 23.6847 44.8421 26.5909C44.8336 29.1648 46.6489 30.6392 49.5978 31.3466L50.416 31.5511L50.3734 36.0597C48.9842 35.7955 48.0467 34.9432 47.9529 33.5199H44.3819C44.4671 36.9631 46.7256 38.8892 50.3393 39.2045L50.3222 41.1818ZM52.3847 36.0597L52.4188 32.0795C53.7398 32.4972 54.4558 33.0341 54.4643 34.0057C54.4558 35.0369 53.6717 35.804 52.3847 36.0597ZM50.4416 28.2443C49.3762 27.8778 48.6092 27.3239 48.6262 26.3438C48.6262 25.4318 49.2739 24.7244 50.4756 24.4773L50.4416 28.2443ZM68.4024 21.5455H64.9337L60.6127 24.2812V27.554L64.6098 25.0483H64.7121V39H68.4024V21.5455ZM79.1659 39.2386C83.0522 39.2386 85.6943 36.7074 85.6858 33.179C85.6943 29.8381 83.359 27.4347 80.2142 27.4347C78.6801 27.4347 77.359 28.0739 76.7454 28.9347H76.6431L77.0948 24.5625H84.7227V21.5455H74.0522L73.2255 30.75L76.5068 31.3381C77.0437 30.6136 78.0835 30.1619 79.1147 30.1619C80.8704 30.1705 82.1318 31.4403 82.1318 33.2727C82.1318 35.0881 80.896 36.3409 79.1659 36.3409C77.7 36.3409 76.5153 35.4205 76.4301 34.0653H72.8505C72.9187 37.0824 75.5522 39.2386 79.1659 39.2386ZM90.1168 39.2216C91.2077 39.2216 92.1537 38.3097 92.1623 37.1761C92.1537 36.0597 91.2077 35.1477 90.1168 35.1477C88.9918 35.1477 88.0628 36.0597 88.0714 37.1761C88.0628 38.3097 88.9918 39.2216 90.1168 39.2216ZM101.262 39.2386C105.182 39.2386 107.986 37.0824 107.978 34.0994C107.986 31.9261 106.605 30.375 104.04 30.0511V29.9148C105.992 29.5653 107.338 28.1847 107.33 26.2244C107.338 23.4716 104.926 21.3068 101.313 21.3068C97.7332 21.3068 95.04 23.4034 94.9889 26.4205H98.5258C98.5685 25.0909 99.7872 24.2301 101.296 24.2301C102.787 24.2301 103.784 25.1335 103.776 26.446C103.784 27.8182 102.617 28.7472 100.938 28.7472H99.3099V31.4574H100.938C102.915 31.4574 104.151 32.446 104.142 33.8523C104.151 35.2415 102.958 36.196 101.27 36.196C99.6423 36.196 98.4236 35.3438 98.3554 34.0653H94.6395C94.6991 37.1165 97.4264 39.2386 101.262 39.2386ZM110.87 39H123.313V35.983H115.984V35.8636L118.532 33.3665C122.12 30.0938 123.083 28.4574 123.083 26.4716C123.083 23.446 120.612 21.3068 116.87 21.3068C113.205 21.3068 110.691 23.4972 110.7 26.9233H114.203C114.194 25.2528 115.251 24.2301 116.845 24.2301C118.379 24.2301 119.521 25.1847 119.521 26.7188C119.521 28.108 118.669 29.0625 117.083 30.5881L110.87 36.3409V39Z" fill="white"/>
<path d="M33.6094 64H35.0185V59.75H37.564C40.2742 59.75 41.4958 58.1023 41.4958 56.0455C41.4958 53.9886 40.2742 52.3636 37.5412 52.3636H33.6094V64ZM35.0185 58.5V53.6136H37.4958C39.3878 53.6136 40.1094 54.6477 40.1094 56.0455C40.1094 57.4432 39.3878 58.5 37.5185 58.5H35.0185ZM43.7438 64H45.0847V58.4773C45.0847 57.2955 46.0166 56.4318 47.2893 56.4318C47.6472 56.4318 48.0166 56.5 48.1075 56.5227V55.1591C47.9541 55.1477 47.6018 55.1364 47.4029 55.1364C46.3575 55.1364 45.4484 55.7273 45.1302 56.5909H45.0393V55.2727H43.7438V64ZM49.857 64H51.1979V55.2727H49.857V64ZM50.5388 53.8182C51.0615 53.8182 51.4933 53.4091 51.4933 52.9091C51.4933 52.4091 51.0615 52 50.5388 52C50.0161 52 49.5842 52.4091 49.5842 52.9091C49.5842 53.4091 50.0161 53.8182 50.5388 53.8182ZM57.3593 64.1818C59.2911 64.1818 60.5638 63 60.7911 61.4545H59.4502C59.2002 62.4091 58.4047 62.9773 57.3593 62.9773C55.7684 62.9773 54.7457 61.6591 54.7457 59.6364C54.7457 57.6591 55.7911 56.3636 57.3593 56.3636C58.5411 56.3636 59.2457 57.0909 59.4502 57.8864H60.7911C60.5638 56.25 59.1775 55.1591 57.3366 55.1591C54.9729 55.1591 53.4047 57.0227 53.4047 59.6818C53.4047 62.2955 54.9047 64.1818 57.3593 64.1818ZM66.5704 64.1818C68.3432 64.1818 69.6386 63.2955 70.0477 61.9773L68.7522 61.6136C68.4113 62.5227 67.6216 62.9773 66.5704 62.9773C64.9966 62.9773 63.9113 61.9602 63.8488 60.0909H70.1841V59.5227C70.1841 56.2727 68.2522 55.1591 66.4341 55.1591C64.0704 55.1591 62.5022 57.0227 62.5022 59.7045C62.5022 62.3864 64.0477 64.1818 66.5704 64.1818ZM63.8488 58.9318C63.9397 57.5739 64.9 56.3636 66.4341 56.3636C67.8886 56.3636 68.8204 57.4545 68.8204 58.9318H63.8488ZM77.0438 64H78.3847V55.2727H77.0438V64ZM77.7257 53.8182C78.2484 53.8182 78.6802 53.4091 78.6802 52.9091C78.6802 52.4091 78.2484 52 77.7257 52C77.2029 52 76.7711 52.4091 76.7711 52.9091C76.7711 53.4091 77.2029 53.8182 77.7257 53.8182ZM82.3416 58.75C82.3416 57.2273 83.2848 56.3636 84.5689 56.3636C85.8132 56.3636 86.5689 57.1761 86.5689 58.5455V64H87.9098V58.4545C87.9098 56.2273 86.7223 55.1591 84.9553 55.1591C83.6371 55.1591 82.8189 55.75 82.4098 56.6364H82.2962V55.2727H81.0007V64H82.3416V58.75ZM98.4755 64.1818C100.157 64.1818 100.726 63.1364 101.021 62.6591H101.18V64H102.476V52.3636H101.135V56.6591H101.021C100.726 56.2045 100.203 55.1591 98.4983 55.1591C96.2937 55.1591 94.771 56.9091 94.771 59.6591C94.771 62.4318 96.2937 64.1818 98.4755 64.1818ZM98.6574 62.9773C96.9755 62.9773 96.1119 61.5 96.1119 59.6364C96.1119 57.7955 96.9528 56.3636 98.6574 56.3636C100.294 56.3636 101.157 57.6818 101.157 59.6364C101.157 61.6136 100.271 62.9773 98.6574 62.9773ZM108.823 64.1818C111.187 64.1818 112.778 62.3864 112.778 59.6818C112.778 56.9545 111.187 55.1591 108.823 55.1591C106.459 55.1591 104.868 56.9545 104.868 59.6818C104.868 62.3864 106.459 64.1818 108.823 64.1818ZM108.823 62.9773C107.028 62.9773 106.209 61.4318 106.209 59.6818C106.209 57.9318 107.028 56.3636 108.823 56.3636C110.618 56.3636 111.437 57.9318 111.437 59.6818C111.437 61.4318 110.618 62.9773 108.823 62.9773ZM116.325 52.3636H114.984V64H116.325V52.3636ZM120.282 52.3636H118.941V64H120.282V52.3636ZM125.466 64.2045C126.989 64.2045 127.785 63.3864 128.057 62.8182H128.125V64H129.466V58.25C129.466 55.4773 127.353 55.1591 126.239 55.1591C124.921 55.1591 123.421 55.6136 122.739 57.2045L124.012 57.6591C124.307 57.0227 125.006 56.3409 126.285 56.3409C127.518 56.3409 128.125 56.9943 128.125 58.1136V58.1591C128.125 58.8068 127.466 58.75 125.875 58.9545C124.256 59.1648 122.489 59.5227 122.489 61.5227C122.489 63.2273 123.807 64.2045 125.466 64.2045ZM125.671 63C124.603 63 123.83 62.5227 123.83 61.5909C123.83 60.5682 124.762 60.25 125.807 60.1136C126.375 60.0455 127.898 59.8864 128.125 59.6136V60.8409C128.125 61.9318 127.262 63 125.671 63ZM132.074 64H133.415V58.4773C133.415 57.2955 134.347 56.4318 135.619 56.4318C135.977 56.4318 136.347 56.5 136.437 56.5227V55.1591C136.284 55.1477 135.932 55.1364 135.733 55.1364C134.687 55.1364 133.778 55.7273 133.46 56.5909H133.369V55.2727H132.074V64Z" fill="#F2F2F2"/>
</svg>
