<svg width="610" height="334" viewBox="0 0 610 334" fill="none" xmlns="http://www.w3.org/2000/svg">
<g filter="url(#filter0_b_1_133)">
<rect x="6.10352e-05" width="610" height="334" rx="16" fill="#35068C"/>
</g>
<path d="M222.004 54H223.849V50.5597H225.798C228.149 50.5597 229.412 49.1477 229.412 47.1889C229.412 45.245 228.164 43.8182 225.822 43.8182H222.004V54ZM223.849 49.0433V45.3594H225.539C226.921 45.3594 227.533 46.1051 227.533 47.1889C227.533 48.2727 226.921 49.0433 225.549 49.0433H223.849ZM230.934 54H232.734V49.5107C232.734 48.5412 233.465 47.8551 234.454 47.8551C234.758 47.8551 235.135 47.9098 235.29 47.9595V46.304C235.126 46.2741 234.842 46.2543 234.643 46.2543C233.768 46.2543 233.037 46.7514 232.759 47.6364H232.68V46.3636H230.934V54ZM236.485 54H238.285V46.3636H236.485V54ZM237.39 45.2798C237.962 45.2798 238.429 44.8423 238.429 44.3054C238.429 43.7635 237.962 43.326 237.39 43.326C236.813 43.326 236.346 43.7635 236.346 44.3054C236.346 44.8423 236.813 45.2798 237.39 45.2798ZM243.467 54.1491C245.386 54.1491 246.609 53.0107 246.738 51.3899H245.018C244.864 52.2102 244.272 52.6825 243.482 52.6825C242.358 52.6825 241.632 51.7429 241.632 50.1818C241.632 48.6406 242.373 47.7159 243.482 47.7159C244.347 47.7159 244.879 48.2727 245.018 49.0085H246.738C246.614 47.353 245.321 46.2642 243.457 46.2642C241.219 46.2642 239.808 47.88 239.808 50.2116C239.808 52.5234 241.185 54.1491 243.467 54.1491ZM251.596 54.1491C253.376 54.1491 254.599 53.2791 254.917 51.9517L253.237 51.7628C252.993 52.4091 252.397 52.7472 251.621 52.7472C250.458 52.7472 249.687 51.9815 249.672 50.674H254.992V50.1222C254.992 47.4425 253.381 46.2642 251.502 46.2642C249.314 46.2642 247.888 47.87 247.888 50.2266C247.888 52.6229 249.295 54.1491 251.596 54.1491ZM249.677 49.4609C249.732 48.4865 250.453 47.6662 251.527 47.6662C252.561 47.6662 253.257 48.4219 253.267 49.4609H249.677Z" fill="white"/>
<path d="M351.72 47.2536C351.406 44.9915 349.666 43.679 347.409 43.679C344.749 43.679 342.746 45.6179 342.746 48.9091C342.746 52.1953 344.725 54.1392 347.409 54.1392C349.83 54.1392 351.436 52.5732 351.72 50.6293L349.86 50.6193C349.627 51.8125 348.652 52.4837 347.434 52.4837C345.783 52.4837 344.6 51.2457 344.6 48.9091C344.6 46.6122 345.774 45.3345 347.439 45.3345C348.677 45.3345 349.646 46.0355 349.86 47.2536H351.72ZM355.129 49.5256C355.129 48.4219 355.815 47.7855 356.779 47.7855C357.724 47.7855 358.281 48.3871 358.281 49.4162V54H360.081V49.1378C360.081 47.2933 359.036 46.2642 357.451 46.2642C356.277 46.2642 355.532 46.7962 355.179 47.6612H355.089V43.8182H353.329V54H355.129V49.5256ZM364.112 54.1541C365.311 54.1541 366.027 53.5923 366.355 52.951H366.414V54H368.144V48.8892C368.144 46.8707 366.499 46.2642 365.042 46.2642C363.436 46.2642 362.203 46.9801 361.806 48.3722L363.486 48.6108C363.665 48.0888 364.172 47.6413 365.052 47.6413C365.887 47.6413 366.345 48.0689 366.345 48.8196V48.8494C366.345 49.3665 365.803 49.3913 364.456 49.5355C362.974 49.6946 361.557 50.1371 361.557 51.8572C361.557 53.3587 362.656 54.1541 364.112 54.1541ZM364.58 52.8317C363.829 52.8317 363.292 52.4886 363.292 51.8274C363.292 51.1364 363.894 50.848 364.699 50.7337C365.171 50.669 366.116 50.5497 366.35 50.3608V51.2607C366.35 52.1108 365.664 52.8317 364.58 52.8317ZM371.754 49.5256C371.754 48.4219 372.42 47.7855 373.37 47.7855C374.299 47.7855 374.856 48.397 374.856 49.4162V54H376.656V49.1378C376.661 47.3082 375.617 46.2642 374.041 46.2642C372.897 46.2642 372.112 46.8111 371.764 47.6612H371.674V46.3636H369.954V54H371.754V49.5256ZM381.806 57.0227C383.87 57.0227 385.391 56.0781 385.391 54.1243V46.3636H383.616V47.6264H383.517C383.243 47.0746 382.671 46.2642 381.324 46.2642C379.559 46.2642 378.172 47.6463 378.172 50.157C378.172 52.6477 379.559 53.8906 381.319 53.8906C382.627 53.8906 383.238 53.1896 383.517 52.6278H383.606V54.0746C383.606 55.1982 382.86 55.6605 381.836 55.6605C380.752 55.6605 380.275 55.1484 380.056 54.701L378.436 55.0938C378.764 56.1626 379.862 57.0227 381.806 57.0227ZM381.821 52.4787C380.633 52.4787 380.007 51.554 380.007 50.147C380.007 48.7599 380.623 47.7408 381.821 47.7408C382.98 47.7408 383.616 48.7003 383.616 50.147C383.616 51.6037 382.97 52.4787 381.821 52.4787ZM390.616 54.1491C392.396 54.1491 393.619 53.2791 393.937 51.9517L392.257 51.7628C392.013 52.4091 391.416 52.7472 390.641 52.7472C389.478 52.7472 388.707 51.9815 388.692 50.674H394.012V50.1222C394.012 47.4425 392.401 46.2642 390.522 46.2642C388.334 46.2642 386.907 47.87 386.907 50.2266C386.907 52.6229 388.314 54.1491 390.616 54.1491ZM388.697 49.4609C388.752 48.4865 389.473 47.6662 390.546 47.6662C391.581 47.6662 392.277 48.4219 392.286 49.4609H388.697Z" fill="white"/>
<path d="M485.367 43.8182H483.343L486.928 54H489.205L492.794 43.8182H490.766L488.121 51.8324H488.017L485.367 43.8182ZM496.566 54.1491C498.804 54.1491 500.226 52.5732 500.226 50.2116C500.226 47.8452 498.804 46.2642 496.566 46.2642C494.329 46.2642 492.907 47.8452 492.907 50.2116C492.907 52.5732 494.329 54.1491 496.566 54.1491ZM496.576 52.7074C495.338 52.7074 494.732 51.6037 494.732 50.2067C494.732 48.8097 495.338 47.6911 496.576 47.6911C497.794 47.6911 498.401 48.8097 498.401 50.2067C498.401 51.6037 497.794 52.7074 496.576 52.7074ZM503.553 43.8182H501.753V54H503.553V43.8182ZM510.271 50.7884C510.271 51.9517 509.44 52.5284 508.645 52.5284C507.78 52.5284 507.203 51.9169 507.203 50.9474V46.3636H505.403V51.2259C505.403 53.0604 506.447 54.0994 507.949 54.0994C509.092 54.0994 509.898 53.4979 510.246 52.6428H510.325V54H512.07V46.3636H510.271V50.7884ZM513.921 54H515.721V49.3565C515.721 48.4169 516.347 47.7805 517.123 47.7805C517.883 47.7805 518.405 48.2926 518.405 49.0781V54H520.17V49.2372C520.17 48.3771 520.682 47.7805 521.552 47.7805C522.278 47.7805 522.855 48.2081 522.855 49.1527V54H524.66V48.8743C524.66 47.169 523.675 46.2642 522.273 46.2642C521.165 46.2642 520.319 46.8111 519.981 47.6612H519.902C519.608 46.7962 518.868 46.2642 517.839 46.2642C516.814 46.2642 516.049 46.7912 515.731 47.6612H515.641V46.3636H513.921V54ZM529.866 54.1491C531.646 54.1491 532.869 53.2791 533.187 51.9517L531.507 51.7628C531.263 52.4091 530.667 52.7472 529.891 52.7472C528.728 52.7472 527.957 51.9815 527.942 50.674H533.262V50.1222C533.262 47.4425 531.651 46.2642 529.772 46.2642C527.584 46.2642 526.157 47.87 526.157 50.2266C526.157 52.6229 527.564 54.1491 529.866 54.1491ZM527.947 49.4609C528.002 48.4865 528.723 47.6662 529.797 47.6662C530.831 47.6662 531.527 48.4219 531.537 49.4609H527.947ZM538.704 49.8487C538.704 52.3295 539.366 54.3928 540.673 56.1626H542.368C541.359 54.8501 540.579 52.2053 540.579 49.8487C540.579 47.4872 541.359 44.8423 542.368 43.5298H540.673C539.366 45.2997 538.704 47.3679 538.704 49.8487ZM543.747 54H550.727V52.4588H546.292V52.3892L548.047 50.6044C550.026 48.7053 550.573 47.7805 550.573 46.6321C550.573 44.9268 549.186 43.679 547.137 43.679C545.119 43.679 543.687 44.9318 543.687 46.8658H545.442C545.442 45.8267 546.098 45.1754 547.113 45.1754C548.082 45.1754 548.803 45.767 548.803 46.7266C548.803 47.5767 548.286 48.1832 547.282 49.2024L543.747 52.6676V54ZM552.039 52.1108H556.897V54H558.657V52.1108H559.959V50.5945H558.657V43.8182H556.36L552.039 50.6442V52.1108ZM556.917 50.5945H553.929V50.5149L556.837 45.9062H556.917V50.5945ZM563.367 49.5256C563.367 48.4219 564.053 47.7855 565.018 47.7855C565.962 47.7855 566.519 48.3871 566.519 49.4162V54H568.319V49.1378C568.319 47.2933 567.275 46.2642 565.689 46.2642C564.516 46.2642 563.77 46.7962 563.417 47.6612H563.327V43.8182H561.567V54H563.367V49.5256ZM573.365 49.8487C573.365 47.3679 572.704 45.3047 571.396 43.5348H569.701C570.71 44.8473 571.491 47.4922 571.491 49.8487C571.491 52.2102 570.71 54.8551 569.701 56.1676H571.396C572.704 54.3977 573.365 52.3295 573.365 49.8487Z" fill="white"/>
<path d="M97.4091 116H101.614C104.364 116 105.5 114.659 105.5 112.909C105.5 111.068 104.227 110.068 103.159 110V109.886C104.159 109.614 105.045 108.955 105.045 107.455C105.045 105.75 103.909 104.364 101.477 104.364H97.4091V116ZM98.8182 114.75V110.705H101.682C103.205 110.705 104.159 111.727 104.159 112.909C104.159 113.932 103.455 114.75 101.614 114.75H98.8182ZM98.8182 109.477V105.614H101.477C103.023 105.614 103.705 106.432 103.705 107.455C103.705 108.682 102.705 109.477 101.432 109.477H98.8182ZM107.794 116H109.134V107.273H107.794V116ZM108.475 105.818C108.998 105.818 109.43 105.409 109.43 104.909C109.43 104.409 108.998 104 108.475 104C107.953 104 107.521 104.409 107.521 104.909C107.521 105.409 107.953 105.818 108.475 105.818ZM115.546 107.273H113.682V105.182H112.341V107.273H111.023V108.409H112.341V113.864C112.341 115.386 113.569 116.114 114.705 116.114C115.205 116.114 115.523 116.023 115.705 115.955L115.432 114.75C115.319 114.773 115.137 114.818 114.841 114.818C114.25 114.818 113.682 114.636 113.682 113.5V108.409H115.546V107.273ZM121.175 116.182C123.106 116.182 124.379 115 124.606 113.455H123.266C123.016 114.409 122.22 114.977 121.175 114.977C119.584 114.977 118.561 113.659 118.561 111.636C118.561 109.659 119.606 108.364 121.175 108.364C122.356 108.364 123.061 109.091 123.266 109.886H124.606C124.379 108.25 122.993 107.159 121.152 107.159C118.788 107.159 117.22 109.023 117.22 111.682C117.22 114.296 118.72 116.182 121.175 116.182ZM130.272 116.182C132.636 116.182 134.227 114.386 134.227 111.682C134.227 108.955 132.636 107.159 130.272 107.159C127.908 107.159 126.318 108.955 126.318 111.682C126.318 114.386 127.908 116.182 130.272 116.182ZM130.272 114.977C128.477 114.977 127.658 113.432 127.658 111.682C127.658 109.932 128.477 108.364 130.272 108.364C132.068 108.364 132.886 109.932 132.886 111.682C132.886 113.432 132.068 114.977 130.272 114.977ZM136.434 116H137.774V107.273H136.434V116ZM137.115 105.818C137.638 105.818 138.07 105.409 138.07 104.909C138.07 104.409 137.638 104 137.115 104C136.593 104 136.161 104.409 136.161 104.909C136.161 105.409 136.593 105.818 137.115 105.818ZM141.731 110.75C141.731 109.227 142.674 108.364 143.959 108.364C145.203 108.364 145.959 109.176 145.959 110.546V116H147.299V110.455C147.299 108.227 146.112 107.159 144.345 107.159C143.027 107.159 142.209 107.75 141.799 108.636H141.686V107.273H140.39V116H141.731V110.75Z" fill="#F2F2F2"/>
<path d="M97.2642 92.0001H103.479C106.746 92.0001 108.486 90.2956 108.486 87.9802C108.486 85.8282 106.945 84.5285 105.29 84.4504V84.3084C106.803 83.9675 107.918 82.895 107.918 81.1834C107.918 79.003 106.298 77.4547 103.088 77.4547H97.2642V92.0001ZM100.339 89.4859V85.6223H102.918C104.395 85.6223 105.311 86.4746 105.311 87.6748C105.311 88.7686 104.565 89.4859 102.847 89.4859H100.339ZM100.339 83.5413V79.9405H102.676C104.04 79.9405 104.814 80.6436 104.814 81.6947C104.814 82.8453 103.876 83.5413 102.619 83.5413H100.339ZM109.933 79.9902H114.386V92.0001H117.426V79.9902H121.879V77.4547H109.933V79.9902ZM136.036 82.547C135.631 79.1876 133.088 77.2558 129.722 77.2558C125.879 77.2558 122.946 79.9689 122.946 84.7274C122.946 89.4717 125.83 92.199 129.722 92.199C133.45 92.199 135.702 89.7203 136.036 87.0427L132.925 87.0285C132.634 88.5839 131.412 89.4788 129.771 89.4788C127.562 89.4788 126.064 87.8382 126.064 84.7274C126.064 81.7018 127.541 79.976 129.793 79.976C131.476 79.976 132.69 80.949 132.925 82.547H136.036Z" fill="white"/>
<circle cx="60" cy="96.0001" r="20" fill="#C4C4C4"/>
<g clip-path="url(#clip0_1_133)">
<path d="M79.4018 100.837C76.7296 111.557 65.8686 118.073 55.1639 115.401C44.4436 112.729 37.927 101.868 40.5993 91.1637C43.2715 80.4437 54.1168 73.9271 64.8371 76.5994C75.5418 79.256 82.0742 90.1166 79.4018 100.837Z" fill="url(#paint0_linear_1_133)"/>
<path d="M69.5223 93.5081C69.9129 90.8518 67.8973 89.4143 65.116 88.4612L66.0223 84.8518L63.8348 84.3049L62.9598 87.8206C62.3817 87.6799 61.7879 87.5393 61.1942 87.4143L62.0692 83.8831L59.8817 83.3362L58.991 86.9299C58.5067 86.8206 58.0379 86.7112 57.5848 86.6018V86.5862L54.5535 85.8362L53.9754 88.1799C53.9754 88.1799 55.6004 88.5549 55.5692 88.5706C56.4598 88.7893 56.616 89.3831 56.5848 89.8518L55.5535 93.9612C55.616 93.9768 55.6942 93.9924 55.7879 94.0393C55.7098 94.0237 55.6317 94.0081 55.5535 93.9768L54.1161 99.7268C54.0067 99.9924 53.7254 100.399 53.1161 100.242C53.1317 100.274 51.5223 99.8518 51.5223 99.8518L50.4286 102.367L53.2879 103.086C53.8192 103.227 54.3348 103.352 54.8504 103.492L53.9442 107.133L56.1317 107.68L57.0379 104.071C57.6317 104.227 58.2254 104.383 58.7879 104.524L57.8973 108.117L60.0848 108.664L60.991 105.024C64.741 105.727 67.5535 105.446 68.7254 102.055C69.6785 99.3362 68.6785 97.7581 66.7098 96.7268C68.1629 96.3987 69.241 95.4456 69.5223 93.5081ZM64.5067 100.539C63.8348 103.258 59.241 101.789 57.7567 101.414L58.9598 96.5862C60.4442 96.9612 65.2254 97.6956 64.5067 100.539ZM65.1942 93.4612C64.5692 95.9456 60.7567 94.6799 59.5223 94.3674L60.6161 89.9924C61.8504 90.3049 65.8348 90.8831 65.1942 93.4612Z" fill="white"/>
</g>
<path d="M225.636 103.455H226.568V102.188C228.955 102.023 230.295 100.614 230.295 98.8412C230.295 96.6593 228.227 95.9548 227.023 95.6366L226.568 95.5116V91.4718C227.773 91.5912 228.648 92.2389 228.773 93.273H230.136C230.08 91.6139 228.625 90.3525 226.568 90.2162V88.9093H225.636V90.2332C223.688 90.4321 222.227 91.6707 222.227 93.4548C222.227 95.023 223.364 95.9548 225.182 96.4775L225.636 96.6082V100.909C224.443 100.784 223.466 100.171 223.364 99.0002H221.909C222.04 100.79 223.403 102.04 225.636 102.188V103.455ZM226.568 100.909V96.8752L226.614 96.8866C227.841 97.2275 228.932 97.6593 228.932 98.8184C228.932 99.9605 227.943 100.756 226.568 100.909ZM225.636 95.2616C224.773 95.0173 223.591 94.54 223.591 93.3866C223.591 92.4037 224.386 91.6537 225.636 91.4889V95.2616ZM236.271 102.159C238.624 102.188 240.158 100.415 240.158 98.2502C240.158 96.0002 238.493 94.3866 236.499 94.3866C235.3 94.3866 234.271 94.9718 233.635 95.9321H233.544C233.55 93.0968 234.652 91.4548 236.453 91.4548C237.68 91.4548 238.419 92.2275 238.68 93.273H240.067C239.783 91.4662 238.408 90.2048 236.453 90.2048C233.834 90.2048 232.226 92.523 232.226 96.6366C232.226 100.938 234.362 102.137 236.271 102.159ZM236.271 100.909C234.811 100.909 233.743 99.665 233.749 98.273C233.754 96.8809 234.874 95.6366 236.317 95.6366C237.743 95.6366 238.794 96.8071 238.794 98.2502C238.794 99.7275 237.697 100.909 236.271 100.909ZM242.756 102H244.233L249.415 91.6821V90.3639H241.96V91.6139H247.96V91.7048L242.756 102ZM255.013 102.159C257.229 102.159 258.854 100.523 258.854 98.2957C258.854 96.04 257.286 94.3866 255.149 94.3866C254.365 94.3866 253.604 94.665 253.126 95.0457H253.058L253.467 91.6139H258.331V90.3639H252.286L251.581 96.0912L252.899 96.2502C253.382 95.9037 254.206 95.6537 254.922 95.6593C256.405 95.6707 257.49 96.7957 257.49 98.3184C257.49 99.8127 256.445 100.909 255.013 100.909C253.82 100.909 252.871 100.142 252.763 99.0912H251.399C251.484 100.864 253.013 102.159 255.013 102.159ZM264.906 102.159C267.474 102.159 268.952 99.9832 268.952 96.1821C268.952 92.4093 267.452 90.2048 264.906 90.2048C262.361 90.2048 260.861 92.4093 260.861 96.1821C260.861 99.9832 262.338 102.159 264.906 102.159ZM264.906 100.909C263.213 100.909 262.224 99.2105 262.224 96.1821C262.224 93.1593 263.224 91.4321 264.906 91.4321C266.588 91.4321 267.588 93.1593 267.588 96.1821C267.588 99.2105 266.599 100.909 264.906 100.909Z" fill="#F2F2F2"/>
<circle opacity="0.1" cx="350" cy="97.0002" r="8" fill="#8FFFBE"/>
<path d="M353.388 98.7289L350.181 95.0101C350.089 94.9037 349.912 94.9037 349.819 95.0101L346.612 98.7289C346.493 98.8676 346.601 99.0707 346.793 99.0707H353.207C353.399 99.0707 353.507 98.8676 353.388 98.7289Z" fill="#8FFFBE"/>
<path d="M370.636 99.9548H371.909V96.8412H375.023V95.5684H371.909V92.4548H370.636V95.5684H367.523V96.8412H370.636V99.9548ZM377.756 102H379.233L384.415 91.6821V90.3639H376.96V91.6139H382.96V91.7048L377.756 102ZM385.533 102.091C386.095 102.091 386.555 101.631 386.555 101.068C386.555 100.506 386.095 100.046 385.533 100.046C384.97 100.046 384.51 100.506 384.51 101.068C384.51 101.631 384.97 102.091 385.533 102.091ZM392.433 102.159C394.689 102.159 396.365 100.745 396.365 98.8412C396.365 97.3639 395.49 96.29 394.024 96.0457V95.9548C395.2 95.5968 395.933 94.6309 395.933 93.3184C395.933 91.6707 394.632 90.2048 392.479 90.2048C390.467 90.2048 388.797 91.4434 388.729 93.273H390.092C390.144 92.1139 391.246 91.4321 392.456 91.4321C393.74 91.4321 394.57 92.2105 394.57 93.3866C394.57 94.6139 393.609 95.4093 392.229 95.4093H391.297V96.6593H392.229C393.996 96.6593 394.979 97.5571 394.979 98.8412C394.979 100.074 393.905 100.909 392.411 100.909C391.064 100.909 389.996 100.216 389.911 99.0912H388.479C388.564 100.921 390.178 102.159 392.433 102.159ZM404.621 99.8184C404.621 101.091 405.416 102.159 406.894 102.159C408.348 102.159 409.144 101.091 409.144 99.8184V99.2048C409.144 97.9321 408.371 96.8639 406.894 96.8639C405.439 96.8639 404.621 97.9321 404.621 99.2048V99.8184ZM398.825 93.1593C398.825 94.4321 399.621 95.5002 401.098 95.5002C402.553 95.5002 403.348 94.4321 403.348 93.1593V92.5457C403.348 91.273 402.575 90.2048 401.098 90.2048C399.644 90.2048 398.825 91.273 398.825 92.5457V93.1593ZM399.257 102H400.553L408.553 90.3639H407.257L399.257 102ZM405.78 99.2048C405.78 98.5002 406.098 97.8412 406.894 97.8412C407.712 97.8412 407.984 98.5002 407.984 99.2048V99.8184C407.984 100.523 407.689 101.182 406.894 101.182C406.075 101.182 405.78 100.523 405.78 99.8184V99.2048ZM399.984 92.5457C399.984 91.8412 400.303 91.1821 401.098 91.1821C401.916 91.1821 402.189 91.8412 402.189 92.5457V93.1593C402.189 93.8639 401.894 94.523 401.098 94.523C400.28 94.523 399.984 93.8639 399.984 93.1593V92.5457Z" fill="#8FFFBE"/>
<path d="M487.637 103.455H488.568V102.188C490.955 102.023 492.296 100.614 492.296 98.8412C492.296 96.6593 490.227 95.9548 489.023 95.6366L488.568 95.5116V91.4718C489.773 91.5912 490.648 92.2389 490.773 93.273H492.137C492.08 91.6139 490.625 90.3525 488.568 90.2162V88.9093H487.637V90.2332C485.688 90.4321 484.227 91.6707 484.227 93.4548C484.227 95.023 485.364 95.9548 487.182 96.4775L487.637 96.6082V100.909C486.443 100.784 485.466 100.171 485.364 99.0002H483.909C484.04 100.79 485.404 102.04 487.637 102.188V103.455ZM488.568 100.909V96.8752L488.614 96.8866C489.841 97.2275 490.932 97.6593 490.932 98.8184C490.932 99.9605 489.943 100.756 488.568 100.909ZM487.637 95.2616C486.773 95.0173 485.591 94.54 485.591 93.3866C485.591 92.4037 486.387 91.6537 487.637 91.4889V95.2616ZM498.34 102.159C500.595 102.159 502.271 100.745 502.271 98.8412C502.271 97.3639 501.396 96.29 499.931 96.0457V95.9548C501.107 95.5968 501.84 94.6309 501.84 93.3184C501.84 91.6707 500.539 90.2048 498.385 90.2048C496.374 90.2048 494.703 91.4434 494.635 93.273H495.999C496.05 92.1139 497.152 91.4321 498.362 91.4321C499.646 91.4321 500.476 92.2105 500.476 93.3866C500.476 94.6139 499.516 95.4093 498.135 95.4093H497.203V96.6593H498.135C499.902 96.6593 500.885 97.5571 500.885 98.8412C500.885 100.074 499.811 100.909 498.317 100.909C496.97 100.909 495.902 100.216 495.817 99.0912H494.385C494.47 100.921 496.084 102.159 498.34 102.159ZM504.323 99.6139H509.8V102H511.141V99.6139H512.732V98.3639H511.141V90.3639H509.436L504.323 98.4548V99.6139ZM509.8 98.3639H505.845V98.273L509.709 92.1593H509.8V98.3639ZM514.861 102H522.202V100.75H516.793V100.659L519.406 97.8639C521.406 95.7218 521.997 94.7218 521.997 93.4321C521.997 91.6366 520.543 90.2048 518.497 90.2048C516.458 90.2048 514.906 91.5912 514.906 93.6366H516.247C516.247 92.3127 517.105 91.4321 518.452 91.4321C519.713 91.4321 520.679 92.2048 520.679 93.4321C520.679 94.5059 520.048 95.3014 518.702 96.773L514.861 100.978V102ZM528.344 102.159C530.912 102.159 532.389 99.9832 532.389 96.1821C532.389 92.4093 530.889 90.2048 528.344 90.2048C525.798 90.2048 524.298 92.4093 524.298 96.1821C524.298 99.9832 525.776 102.159 528.344 102.159ZM528.344 100.909C526.651 100.909 525.662 99.2105 525.662 96.1821C525.662 93.1593 526.662 91.4321 528.344 91.4321C530.026 91.4321 531.026 93.1593 531.026 96.1821C531.026 99.2105 530.037 100.909 528.344 100.909ZM534.548 102H541.889V100.75H536.48V100.659L539.094 97.8639C541.094 95.7218 541.685 94.7218 541.685 93.4321C541.685 91.6366 540.23 90.2048 538.185 90.2048C536.145 90.2048 534.594 91.5912 534.594 93.6366H535.935C535.935 92.3127 536.793 91.4321 538.139 91.4321C539.401 91.4321 540.367 92.2048 540.367 93.4321C540.367 94.5059 539.736 95.3014 538.389 96.773L534.548 100.978V102ZM548.327 90.3639H546.918L544.009 92.2957V93.7275L546.85 91.8412H546.918V102H548.327V90.3639ZM551.401 99.6139H556.878V102H558.219V99.6139H559.81V98.3639H558.219V90.3639H556.514L551.401 98.4548V99.6139ZM556.878 98.3639H552.923V98.273L556.787 92.1593H556.878V98.3639Z" fill="#F2F2F2"/>
<path d="M225.636 277.455H226.568V276.188C228.955 276.023 230.295 274.614 230.295 272.841C230.295 270.66 228.227 269.955 227.023 269.637L226.568 269.512V265.472C227.773 265.591 228.648 266.239 228.773 267.273H230.136C230.08 265.614 228.625 264.353 226.568 264.216V262.91H225.636V264.233C223.688 264.432 222.227 265.671 222.227 267.455C222.227 269.023 223.364 269.955 225.182 270.478L225.636 270.608V274.91C224.443 274.785 223.466 274.171 223.364 273H221.909C222.04 274.79 223.403 276.04 225.636 276.188V277.455ZM226.568 274.91V270.875L226.614 270.887C227.841 271.228 228.932 271.66 228.932 272.819C228.932 273.961 227.943 274.756 226.568 274.91ZM225.636 269.262C224.773 269.018 223.591 268.54 223.591 267.387C223.591 266.404 224.386 265.654 225.636 265.489V269.262ZM236.135 276.16C238.459 276.16 240.078 274.802 240.089 272.91C240.078 271.438 239.095 270.188 237.839 269.955V269.887C238.93 269.603 239.646 268.535 239.658 267.296C239.646 265.523 238.158 264.205 236.135 264.205C234.089 264.205 232.601 265.523 232.612 267.296C232.601 268.535 233.317 269.603 234.43 269.887V269.955C233.152 270.188 232.169 271.438 232.18 272.91C232.169 274.802 233.788 276.16 236.135 276.16ZM236.135 274.91C234.538 274.91 233.555 274.091 233.567 272.841C233.555 271.529 234.641 270.591 236.135 270.591C237.607 270.591 238.692 271.529 238.703 272.841C238.692 274.091 237.709 274.91 236.135 274.91ZM236.135 269.387C234.862 269.387 233.964 268.591 233.976 267.387C233.964 266.205 234.828 265.432 236.135 265.432C237.419 265.432 238.283 266.205 238.294 267.387C238.283 268.591 237.385 269.387 236.135 269.387ZM245.903 276.16C248.119 276.16 249.744 274.523 249.744 272.296C249.744 270.04 248.176 268.387 246.04 268.387C245.256 268.387 244.494 268.665 244.017 269.046H243.949L244.358 265.614H249.222V264.364H243.176L242.472 270.091L243.79 270.25C244.273 269.904 245.097 269.654 245.812 269.66C247.295 269.671 248.381 270.796 248.381 272.319C248.381 273.813 247.335 274.91 245.903 274.91C244.71 274.91 243.761 274.143 243.653 273.091H242.29C242.375 274.864 243.903 276.16 245.903 276.16ZM255.933 276.16C258.189 276.16 259.865 274.745 259.865 272.841C259.865 271.364 258.99 270.29 257.524 270.046V269.955C258.7 269.597 259.433 268.631 259.433 267.319C259.433 265.671 258.132 264.205 255.979 264.205C253.967 264.205 252.297 265.444 252.229 267.273H253.592C253.643 266.114 254.746 265.432 255.956 265.432C257.24 265.432 258.07 266.211 258.07 267.387C258.07 268.614 257.109 269.41 255.729 269.41H254.797V270.66H255.729C257.496 270.66 258.479 271.557 258.479 272.841C258.479 274.074 257.405 274.91 255.911 274.91C254.564 274.91 253.496 274.216 253.411 273.091H251.979C252.064 274.921 253.678 276.16 255.933 276.16ZM265.825 276.16C268.041 276.16 269.666 274.523 269.666 272.296C269.666 270.04 268.098 268.387 265.962 268.387C265.178 268.387 264.416 268.665 263.939 269.046H263.871L264.28 265.614H269.143V264.364H263.098L262.393 270.091L263.712 270.25C264.195 269.904 265.018 269.654 265.734 269.66C267.217 269.671 268.303 270.796 268.303 272.319C268.303 273.813 267.257 274.91 265.825 274.91C264.632 274.91 263.683 274.143 263.575 273.091H262.212C262.297 274.864 263.825 276.16 265.825 276.16Z" fill="#F2F2F2"/>
<circle opacity="0.1" cx="350" cy="271" r="8" fill="#8FFFBE"/>
<path d="M353.388 272.729L350.181 269.01C350.089 268.904 349.912 268.904 349.819 269.01L346.612 272.729C346.493 272.868 346.601 273.071 346.793 273.071H353.207C353.399 273.071 353.507 272.868 353.388 272.729Z" fill="#8FFFBE"/>
<path d="M370.636 273.955H371.909V270.841H375.023V269.569H371.909V266.455H370.636V269.569H367.523V270.841H370.636V273.955ZM381.479 276.16C383.803 276.16 385.422 274.802 385.433 272.91C385.422 271.438 384.439 270.188 383.183 269.955V269.887C384.274 269.603 384.99 268.535 385.002 267.296C384.99 265.523 383.502 264.205 381.479 264.205C379.433 264.205 377.945 265.523 377.956 267.296C377.945 268.535 378.661 269.603 379.774 269.887V269.955C378.496 270.188 377.513 271.438 377.524 272.91C377.513 274.802 379.132 276.16 381.479 276.16ZM381.479 274.91C379.882 274.91 378.899 274.091 378.911 272.841C378.899 271.529 379.984 270.591 381.479 270.591C382.95 270.591 384.036 271.529 384.047 272.841C384.036 274.091 383.053 274.91 381.479 274.91ZM381.479 269.387C380.206 269.387 379.308 268.591 379.32 267.387C379.308 266.205 380.172 265.432 381.479 265.432C382.763 265.432 383.627 266.205 383.638 267.387C383.627 268.591 382.729 269.387 381.479 269.387ZM388.252 276.091C388.814 276.091 389.274 275.631 389.274 275.069C389.274 274.506 388.814 274.046 388.252 274.046C387.689 274.046 387.229 274.506 387.229 275.069C387.229 275.631 387.689 276.091 388.252 276.091ZM391.658 276H398.999V274.75H393.59V274.66L396.203 271.864C398.203 269.722 398.794 268.722 398.794 267.432C398.794 265.637 397.34 264.205 395.294 264.205C393.254 264.205 391.703 265.591 391.703 267.637H393.044C393.044 266.313 393.902 265.432 395.249 265.432C396.51 265.432 397.476 266.205 397.476 267.432C397.476 268.506 396.845 269.302 395.499 270.773L391.658 274.978V276ZM407.277 273.819C407.277 275.091 408.073 276.16 409.55 276.16C411.004 276.16 411.8 275.091 411.8 273.819V273.205C411.8 271.932 411.027 270.864 409.55 270.864C408.095 270.864 407.277 271.932 407.277 273.205V273.819ZM401.482 267.16C401.482 268.432 402.277 269.5 403.754 269.5C405.209 269.5 406.004 268.432 406.004 267.16V266.546C406.004 265.273 405.232 264.205 403.754 264.205C402.3 264.205 401.482 265.273 401.482 266.546V267.16ZM401.913 276H403.209L411.209 264.364H409.913L401.913 276ZM408.436 273.205C408.436 272.5 408.754 271.841 409.55 271.841C410.368 271.841 410.641 272.5 410.641 273.205V273.819C410.641 274.523 410.345 275.182 409.55 275.182C408.732 275.182 408.436 274.523 408.436 273.819V273.205ZM402.641 266.546C402.641 265.841 402.959 265.182 403.754 265.182C404.573 265.182 404.845 265.841 404.845 266.546V267.16C404.845 267.864 404.55 268.523 403.754 268.523C402.936 268.523 402.641 267.864 402.641 267.16V266.546Z" fill="#8FFFBE"/>
<path d="M487.637 277.455H488.568V276.188C490.955 276.023 492.296 274.614 492.296 272.841C492.296 270.66 490.227 269.955 489.023 269.637L488.568 269.512V265.472C489.773 265.591 490.648 266.239 490.773 267.273H492.137C492.08 265.614 490.625 264.353 488.568 264.216V262.91H487.637V264.233C485.688 264.432 484.227 265.671 484.227 267.455C484.227 269.023 485.364 269.955 487.182 270.478L487.637 270.608V274.91C486.443 274.785 485.466 274.171 485.364 273H483.909C484.04 274.79 485.404 276.04 487.637 276.188V277.455ZM488.568 274.91V270.875L488.614 270.887C489.841 271.228 490.932 271.66 490.932 272.819C490.932 273.961 489.943 274.756 488.568 274.91ZM487.637 269.262C486.773 269.018 485.591 268.54 485.591 267.387C485.591 266.404 486.387 265.654 487.637 265.489V269.262ZM498.044 276.16C500.26 276.16 501.885 274.523 501.885 272.296C501.885 270.04 500.317 268.387 498.181 268.387C497.396 268.387 496.635 268.665 496.158 269.046H496.09L496.499 265.614H501.362V264.364H495.317L494.612 270.091L495.931 270.25C496.414 269.904 497.237 269.654 497.953 269.66C499.436 269.671 500.521 270.796 500.521 272.319C500.521 273.813 499.476 274.91 498.044 274.91C496.851 274.91 495.902 274.143 495.794 273.091H494.431C494.516 274.864 496.044 276.16 498.044 276.16ZM507.87 276.16C510.193 276.16 511.813 274.802 511.824 272.91C511.813 271.438 510.83 270.188 509.574 269.955V269.887C510.665 269.603 511.381 268.535 511.392 267.296C511.381 265.523 509.892 264.205 507.87 264.205C505.824 264.205 504.335 265.523 504.347 267.296C504.335 268.535 505.051 269.603 506.165 269.887V269.955C504.887 270.188 503.904 271.438 503.915 272.91C503.904 274.802 505.523 276.16 507.87 276.16ZM507.87 274.91C506.273 274.91 505.29 274.091 505.301 272.841C505.29 271.529 506.375 270.591 507.87 270.591C509.341 270.591 510.426 271.529 510.438 272.841C510.426 274.091 509.443 274.91 507.87 274.91ZM507.87 269.387C506.597 269.387 505.699 268.591 505.71 267.387C505.699 266.205 506.563 265.432 507.87 265.432C509.154 265.432 510.017 266.205 510.029 267.387C510.017 268.591 509.12 269.387 507.87 269.387ZM514.002 276H521.343V274.75H515.933V274.66L518.547 271.864C520.547 269.722 521.138 268.722 521.138 267.432C521.138 265.637 519.683 264.205 517.638 264.205C515.598 264.205 514.047 265.591 514.047 267.637H515.388C515.388 266.313 516.246 265.432 517.593 265.432C518.854 265.432 519.82 266.205 519.82 267.432C519.82 268.506 519.189 269.302 517.843 270.773L514.002 274.978V276ZM527.485 276.16C530.053 276.16 531.53 273.983 531.53 270.182C531.53 266.41 530.03 264.205 527.485 264.205C524.939 264.205 523.439 266.41 523.439 270.182C523.439 273.983 524.916 276.16 527.485 276.16ZM527.485 274.91C525.791 274.91 524.803 273.211 524.803 270.182C524.803 267.16 525.803 265.432 527.485 265.432C529.166 265.432 530.166 267.16 530.166 270.182C530.166 273.211 529.178 274.91 527.485 274.91ZM537.621 276.16C539.877 276.16 541.553 274.745 541.553 272.841C541.553 271.364 540.678 270.29 539.212 270.046V269.955C540.388 269.597 541.121 268.631 541.121 267.319C541.121 265.671 539.82 264.205 537.666 264.205C535.655 264.205 533.985 265.444 533.916 267.273H535.28C535.331 266.114 536.433 265.432 537.644 265.432C538.928 265.432 539.757 266.211 539.757 267.387C539.757 268.614 538.797 269.41 537.416 269.41H536.485V270.66H537.416C539.183 270.66 540.166 271.557 540.166 272.841C540.166 274.074 539.093 274.91 537.598 274.91C536.252 274.91 535.183 274.216 535.098 273.091H533.666C533.752 274.921 535.365 276.16 537.621 276.16ZM547.581 264.205C545.218 264.177 543.695 265.955 543.695 268.091C543.695 270.341 545.354 271.955 547.354 271.955C548.558 271.955 549.581 271.364 550.218 270.41H550.308C550.308 273.273 549.195 274.91 547.399 274.91C546.172 274.91 545.422 274.137 545.172 273.069H543.786C544.058 274.91 545.445 276.16 547.399 276.16C550.013 276.16 551.627 273.841 551.627 269.705C551.627 265.432 549.49 264.228 547.581 264.205ZM547.581 265.455C549.036 265.455 550.104 266.705 550.104 268.069C550.104 269.455 548.968 270.705 547.536 270.705C546.104 270.705 545.058 269.546 545.058 268.091C545.058 266.637 546.149 265.455 547.581 265.455ZM557.566 264.205C555.202 264.177 553.679 265.955 553.679 268.091C553.679 270.341 555.338 271.955 557.338 271.955C558.543 271.955 559.566 271.364 560.202 270.41H560.293C560.293 273.273 559.179 274.91 557.384 274.91C556.156 274.91 555.406 274.137 555.156 273.069H553.77C554.043 274.91 555.429 276.16 557.384 276.16C559.997 276.16 561.611 273.841 561.611 269.705C561.611 265.432 559.475 264.228 557.566 264.205ZM557.566 265.455C559.02 265.455 560.088 266.705 560.088 268.069C560.088 269.455 558.952 270.705 557.52 270.705C556.088 270.705 555.043 269.546 555.043 268.091C555.043 266.637 556.134 265.455 557.566 265.455Z" fill="#F2F2F2"/>
<path d="M97.4091 290H104.227V288.75H98.8182V278.364H97.4091V290ZM106.387 290H107.728V281.273H106.387V290ZM107.069 279.819C107.592 279.819 108.024 279.41 108.024 278.91C108.024 278.41 107.592 278 107.069 278C106.546 278 106.115 278.41 106.115 278.91C106.115 279.41 106.546 279.819 107.069 279.819ZM114.14 281.273H112.276V279.182H110.935V281.273H109.617V282.41H110.935V287.864C110.935 289.387 112.162 290.114 113.299 290.114C113.799 290.114 114.117 290.023 114.299 289.955L114.026 288.75C113.912 288.773 113.731 288.819 113.435 288.819C112.844 288.819 112.276 288.637 112.276 287.5V282.41H114.14V281.273ZM119.882 290.182C121.655 290.182 122.95 289.296 123.359 287.978L122.064 287.614C121.723 288.523 120.933 288.978 119.882 288.978C118.308 288.978 117.223 287.961 117.16 286.091H123.496V285.523C123.496 282.273 121.564 281.16 119.746 281.16C117.382 281.16 115.814 283.023 115.814 285.705C115.814 288.387 117.359 290.182 119.882 290.182ZM117.16 284.932C117.251 283.574 118.212 282.364 119.746 282.364C121.2 282.364 122.132 283.455 122.132 284.932H117.16ZM129.241 290.182C131.173 290.182 132.445 289 132.673 287.455H131.332C131.082 288.41 130.286 288.978 129.241 288.978C127.65 288.978 126.627 287.66 126.627 285.637C126.627 283.66 127.673 282.364 129.241 282.364C130.423 282.364 131.127 283.091 131.332 283.887H132.673C132.445 282.25 131.059 281.16 129.218 281.16C126.854 281.16 125.286 283.023 125.286 285.682C125.286 288.296 126.786 290.182 129.241 290.182ZM138.338 290.182C140.702 290.182 142.293 288.387 142.293 285.682C142.293 282.955 140.702 281.16 138.338 281.16C135.975 281.16 134.384 282.955 134.384 285.682C134.384 288.387 135.975 290.182 138.338 290.182ZM138.338 288.978C136.543 288.978 135.725 287.432 135.725 285.682C135.725 283.932 136.543 282.364 138.338 282.364C140.134 282.364 140.952 283.932 140.952 285.682C140.952 287.432 140.134 288.978 138.338 288.978ZM144.5 290H145.841V281.273H144.5V290ZM145.182 279.819C145.704 279.819 146.136 279.41 146.136 278.91C146.136 278.41 145.704 278 145.182 278C144.659 278 144.227 278.41 144.227 278.91C144.227 279.41 144.659 279.819 145.182 279.819ZM149.798 284.75C149.798 283.228 150.741 282.364 152.025 282.364C153.269 282.364 154.025 283.177 154.025 284.546V290H155.366V284.455C155.366 282.228 154.178 281.16 152.411 281.16C151.093 281.16 150.275 281.75 149.866 282.637H149.752V281.273H148.457V290H149.798V284.75Z" fill="#F2F2F2"/>
<path d="M97.2642 266H106.575V263.465H100.339V251.455H97.2642V266ZM106.241 253.991H110.695V266H113.734V253.991H118.188V251.455H106.241V253.991ZM132.344 256.547C131.939 253.188 129.397 251.256 126.03 251.256C122.188 251.256 119.255 253.969 119.255 258.728C119.255 263.472 122.138 266.199 126.03 266.199C129.759 266.199 132.01 263.721 132.344 261.043L129.233 261.029C128.942 262.584 127.721 263.479 126.08 263.479C123.871 263.479 122.373 261.839 122.373 258.728C122.373 255.702 123.85 253.976 126.101 253.976C127.784 253.976 128.999 254.949 129.233 256.547H132.344Z" fill="white"/>
<path d="M79.8914 271.001C79.8914 281.988 70.9844 290.895 59.997 290.895C49.0094 290.895 40.1024 281.988 40.1024 271.001C40.1024 260.013 49.0094 251.106 59.997 251.106C70.9843 251.106 79.8914 260.013 79.8914 271.001Z" fill="#59C19C"/>
<path d="M59.3014 274.348L60.1939 270.987L62.3069 270.215L62.8325 268.24L62.8146 268.191L60.7346 268.951L62.2332 263.308H57.9831L56.0232 270.672L54.3868 271.27L53.8462 273.306L55.4812 272.709L54.3262 277.049H65.6375L66.3627 274.348H59.3014Z" fill="white"/>
<defs>
<filter id="filter0_b_1_133" x="-3.99994" y="-4" width="618" height="342" filterUnits="userSpaceOnUse" color-interpolation-filters="sRGB">
<feFlood flood-opacity="0" result="BackgroundImageFix"/>
<feGaussianBlur in="BackgroundImageFix" stdDeviation="2"/>
<feComposite in2="SourceAlpha" operator="in" result="effect1_backgroundBlur_1_133"/>
<feBlend mode="normal" in="SourceGraphic" in2="effect1_backgroundBlur_1_133" result="shape"/>
</filter>
<linearGradient id="paint0_linear_1_133" x1="59.9893" y1="75.9906" x2="59.9893" y2="115.996" gradientUnits="userSpaceOnUse">
<stop stop-color="#F9AA4B"/>
<stop offset="1" stop-color="#F7931A"/>
</linearGradient>
<clipPath id="clip0_1_133">
<rect width="40" height="40" fill="white" transform="translate(40 76.0001)"/>
</clipPath>
</defs>
</svg>
