<svg width="316" height="220" viewBox="0 0 316 220" fill="none" xmlns="http://www.w3.org/2000/svg">
<path d="M157.961 219.294C244.708 219.294 315.031 178.657 315.031 128.528C315.031 78.3993 244.708 37.762 157.961 37.762C71.2133 37.762 0.890594 78.3993 0.890594 128.528C0.890594 178.657 71.2133 219.294 157.961 219.294Z" fill="url(#paint0_linear_8308_7)"/>
<path opacity="0.48" d="M315.047 98.641H311.165C304.86 82.4772 290.823 67.1061 269.036 54.5325C207.699 19.081 108.239 19.081 46.9794 54.5325C26.4042 66.4222 12.8168 80.7831 5.96876 95.9678H1.04625V116.095C-0.180502 140.201 15.1305 164.54 46.9794 182.926C108.317 218.362 207.776 218.362 269.114 182.926C299.782 165.192 315.125 141.972 315.125 118.737L315.047 98.641Z" fill="url(#paint1_linear_8308_7)"/>
<path opacity="0.48" d="M311.165 90.8383C310.948 90.2788 310.715 89.7193 310.466 89.1598V75.9335H302.236V74.9854C300.086 72.0976 297.752 69.3513 295.249 66.7636V75.9335H290.59V62.2098C288.406 60.2204 286.066 58.2724 283.571 56.3659V75.9646H278.913V52.8845C276.661 51.3303 274.254 49.7761 271.863 48.3151V75.8868H267.204V45.5797C264.906 44.2845 262.551 43.0411 260.139 41.8496V75.8868H255.48V39.6892C253.151 38.6531 250.791 37.617 248.399 36.5808V75.8868H243.741V44.1032H236.644V75.9335H231.986V52.8845H224.858V75.9801H220.2V61.6192H213.056V75.9801H208.491V70.3694H201.395V75.9801H114.653V70.3694H107.479V75.9801H102.913V61.6192H95.8012V75.9801H91.1427V52.8845H84.0151V75.9801H79.3566V44.1032H72.2601V75.9335H67.6016V36.5964C65.2102 37.5703 62.8499 38.6065 60.5206 39.7048V75.9801H55.8621V41.8651C53.4552 43.0619 51.0948 44.2897 48.7966 45.5797V75.9335H44.1381V48.3151C41.6846 49.7864 39.3346 51.3044 37.0882 52.869V75.9335H32.4297V56.2882C29.9296 58.1844 27.6003 60.1427 25.4108 62.1321V75.9335H20.7523V66.6082C18.2582 69.1986 15.9246 71.9391 13.7645 74.8144V75.8557H5.5344V88.0563H2.0405V121.798C3.40264 128.098 5.75605 134.142 9.01276 139.703V118.674H13.7645V146.914C15.9161 149.791 18.2502 152.527 20.7523 155.105V118.674H25.4108V159.674C27.6003 161.648 29.9451 163.607 32.4297 165.503V118.674H37.0882V168.922C39.345 170.476 41.695 171.999 44.1381 173.491V118.674H48.7966V176.18C51.0948 177.455 53.45 178.693 55.8621 179.895V118.674H60.5206V182.133C62.8499 183.169 65.2102 184.205 67.6016 185.241V118.721H72.2601V187.106C74.5894 187.992 76.9186 188.831 79.3566 189.64V118.674H84.0151V191.007C86.3755 191.738 88.6737 192.422 91.1427 193.074V118.674H95.8012V194.318C98.1616 194.893 100.537 195.452 102.944 195.965V118.721H107.51V196.913C109.886 197.38 112.277 197.799 114.684 198.203V118.674H119.234V198.856C121.609 199.214 124.016 199.524 126.423 199.82V118.674H130.942V200.317C133.333 200.55 135.74 200.752 138.163 200.939V118.674H142.651V201.234C145.073 201.358 147.48 201.467 149.902 201.545V118.674H154.375V201.638C156.818 201.638 159.256 201.638 161.688 201.638V118.674H166.161V201.545C168.583 201.545 170.99 201.358 173.412 201.234V118.674H177.9V200.939C180.323 200.752 182.729 200.55 185.121 200.301V118.674H189.64V199.804C192.047 199.524 194.453 199.198 196.829 198.856V118.674H201.395V198.141C203.802 197.753 206.193 197.317 208.569 196.851V118.674H213.134V195.872C215.541 195.344 217.917 194.8 220.277 194.209V118.674H224.936V193.059C227.327 192.406 229.703 191.707 232.063 190.992V118.674H236.722V189.5C239.113 188.707 241.489 187.945 243.818 186.982V118.674H248.477V185.163C250.868 184.184 253.229 183.174 255.558 182.055V118.674H260.216V179.895C262.628 178.693 264.984 177.455 267.282 176.18V118.674H271.94V173.46C274.394 171.968 276.744 170.44 278.99 168.875V118.674H283.649V165.456C286.133 163.539 288.473 161.591 290.668 159.612V118.674H295.326V155.058C297.833 152.474 300.167 149.728 302.314 146.837V118.674H306.988V139.641C310.271 134.031 312.625 127.927 313.96 121.565V90.8539L311.165 90.8383Z" fill="url(#paint2_linear_8308_7)"/>
<path d="M157.961 181.636C244.708 181.636 315.031 140.998 315.031 90.8697C315.031 40.7411 244.708 0.10376 157.961 0.10376C71.2133 0.10376 0.890594 40.7411 0.890594 90.8697C0.890594 140.998 71.2133 181.636 157.961 181.636Z" fill="url(#paint3_linear_8308_7)"/>
<path opacity="0.3" d="M158.023 0.0412598C122.432 0.0412598 86.8409 6.98858 57.8648 20.8677L11 122.824C18.64 134.558 30.5813 145.547 46.9017 154.981C57.4343 160.983 68.5538 165.889 80.086 169.621L158.023 0.0412598Z" fill="#91A2FA"/>
<path opacity="0.3" d="M202.03 3.74048L121.406 179.149C140.889 181.797 160.602 182.318 180.197 180.703L254.407 19.236C237.679 11.8577 220.078 6.65031 202.03 3.74048Z" fill="#91A2FA"/>
<path d="M59.6045 39.4411C113.954 8.06153 202 8.06153 256.334 39.4411C282.298 54.4547 295.839 73.9135 296.988 93.5742C298.23 72.1106 284.689 50.4138 256.334 34.0324C201.985 2.63732 113.923 2.63732 59.6045 34.0324C31.2496 50.4138 17.6777 72.1106 18.951 93.5742C20.1001 73.9135 33.6875 54.4392 59.6045 39.4411Z" fill="url(#paint4_linear_8308_7)"/>
<path d="M200.96 73.8508C192.677 73.116 184.343 74.5124 176.751 77.9073C186.068 70.1363 183.92 62.1942 170.307 54.0812L169.297 53.4906C164.882 50.858 160.142 48.815 155.198 47.4137C150.518 46.0486 145.676 45.3219 140.803 45.2533C136.15 45.2833 131.518 45.8888 127.013 47.0562C124.498 47.6986 122.096 48.4136 119.808 49.201L111.05 44.1343L98.1616 51.579L105.367 55.7598C104.093 56.4436 102.805 57.1586 101.485 57.9201L96.8261 60.6556L89.683 56.5213L76.7944 63.966L83.9375 68.1002L75.0397 73.2447L71.5613 75.2651L70.6141 75.7936L55.831 84.3417L68.7196 91.8019L83.5027 83.2538L176.394 136.967L161.595 145.516L174.484 152.96L189.282 144.412L193.708 141.863L202.606 136.719L209.873 140.915L222.762 133.47L218.103 130.813L215.448 129.258L224.004 124.316L231.271 128.512L244.16 121.068L239.501 118.41L235.806 116.265C240.883 111.836 243.57 107.36 243.912 102.852C244.284 96.1175 238.694 89.3826 227.141 82.6476L226.364 82.1814C218.589 77.6171 209.926 74.7762 200.96 73.8508ZM114.435 70.8356L118.581 68.4266C128.851 62.4999 138.686 62.2408 148.085 67.6495C153.583 70.7579 156.564 73.7265 157.076 76.3531C157.589 78.9797 155.011 81.9327 149.312 85.1965L144.297 88.0874L114.435 70.8356ZM197.233 118.674L161.564 98.1121L166.72 95.128C171.621 92.0203 177.316 90.4007 183.118 90.4653C188.232 90.714 194.133 92.7863 200.82 96.6822C206.783 100.133 210.003 103.319 210.479 106.241C210.96 109.162 208.351 112.271 202.715 115.566L197.233 118.674Z" fill="url(#paint5_linear_8308_7)"/>
<path d="M76.7168 53.5063V61.7748L83.8598 57.6406L76.7168 53.5063Z" fill="url(#paint6_linear_8308_7)"/>
<path d="M98.1611 41.1194V49.3878L105.366 45.3002L98.1611 41.1194Z" fill="url(#paint7_linear_8308_7)"/>
<path d="M182.45 57.6555V67.4781L175.99 63.5149L182.45 57.6555Z" fill="url(#paint8_linear_8308_7)"/>
<path d="M243.99 90.8696V102.868L234.3 96.8689L243.99 90.8696Z" fill="url(#paint9_linear_8308_7)"/>
<path d="M200.96 63.3913C192.677 62.6566 184.343 64.0529 176.751 67.4478C186.068 59.6768 183.92 51.7296 170.307 43.6062L169.297 43.0312C164.882 40.3985 160.142 38.3555 155.198 36.9542C150.52 35.5816 145.677 34.8548 140.803 34.7938C136.15 34.8238 131.518 35.4294 127.013 36.5967C124.498 37.2288 122.096 37.9437 119.808 38.7415L111.05 33.6748L98.1616 41.1195L105.367 45.3003C104.093 45.9842 102.805 46.6991 101.485 47.4607L96.8261 50.1961L89.683 46.0619L76.7944 53.5065L83.9375 57.6407L75.0397 62.7852L71.5613 64.7901L70.6141 65.3341L55.831 73.8822L68.7196 81.3425L83.5027 72.7943L176.471 126.508L161.673 135.056L174.562 142.501L189.36 133.953L193.786 131.404L202.684 126.259L209.951 130.456L222.839 123.011L218.181 120.353L215.526 118.799L224.082 113.857L231.349 118.053L244.238 110.608L239.579 107.951L235.883 105.806C240.961 101.376 243.648 96.9001 243.989 92.3929C244.362 85.658 238.772 78.9231 227.218 72.1882L226.442 71.7375C218.648 67.1504 209.955 64.3034 200.96 63.3913ZM114.435 60.3762L118.581 57.9671C128.851 52.0404 138.686 51.7814 148.086 57.19C153.583 60.2985 156.564 63.267 157.076 65.8936C157.589 68.5202 155.011 71.4732 149.312 74.7371L144.297 77.6279L114.435 60.3762ZM197.233 108.215L161.626 87.6526L166.782 84.6685C171.683 81.5608 177.378 79.9413 183.18 80.0058C188.294 80.2545 194.195 82.3268 200.882 86.2227C206.845 89.673 210.065 92.8592 210.541 95.7811C211.022 98.703 208.414 101.811 202.777 105.106L197.233 108.215Z" fill="url(#paint10_linear_8308_7)"/>
<path d="M244.206 110.624V121.083L231.317 128.528V118.068L244.206 110.624Z" fill="url(#paint11_linear_8308_7)"/>
<path d="M222.762 123.011V133.471L209.873 140.915V130.455L222.762 123.011Z" fill="url(#paint12_linear_8308_7)"/>
<path d="M174.498 142.501V152.961L161.594 145.516V135.056L174.498 142.501Z" fill="url(#paint13_linear_8308_7)"/>
<path d="M55.7539 73.8816V84.357L68.6425 91.8016V81.3418L55.7539 73.8816Z" fill="url(#paint14_linear_8308_7)"/>
<path d="M83.4246 83.254V72.7942L68.6416 81.3424V91.8022L83.4246 83.254Z" fill="url(#paint15_linear_8308_7)"/>
<path d="M83.4238 72.7942V83.254L167.34 131.745L176.393 126.508L83.4238 72.7942Z" fill="url(#paint16_linear_8308_7)"/>
<defs>
<linearGradient id="paint0_linear_8308_7" x1="99781" y1="-16441.8" x2="118743" y2="14345.1" gradientUnits="userSpaceOnUse">
<stop stop-color="#35068C"/>
<stop offset="0.02" stop-color="#40DDDA"/>
<stop offset="0.09" stop-color="#3AAEC0"/>
<stop offset="0.17" stop-color="#3484A9"/>
<stop offset="0.26" stop-color="#2F6195"/>
<stop offset="0.35" stop-color="#2B4486"/>
<stop offset="0.44" stop-color="#282E79"/>
<stop offset="0.54" stop-color="#261E71"/>
<stop offset="0.66" stop-color="#24156C"/>
<stop offset="0.82" stop-color="#24126A"/>
</linearGradient>
<linearGradient id="paint1_linear_8308_7" x1="-22.821" y1="118.675" x2="288.214" y2="118.675" gradientUnits="userSpaceOnUse">
<stop stop-color="#3671E9"/>
<stop offset="0.15" stop-color="#91A2FA"/>
<stop offset="0.33" stop-color="#8B97F1"/>
<stop offset="0.52" stop-color="#7366C8"/>
<stop offset="0.72" stop-color="#654CB3"/>
<stop offset="0.93" stop-color="#4127A7"/>
<stop offset="1" stop-color="#260672"/>
</linearGradient>
<linearGradient id="paint2_linear_8308_7" x1="22029.8" y1="44869.4" x2="84685.2" y2="44869.4" gradientUnits="userSpaceOnUse">
<stop stop-color="#42E8E0"/>
<stop offset="0.15" stop-color="#43E3E0"/>
<stop offset="0.33" stop-color="#45D5DF"/>
<stop offset="0.52" stop-color="#49BDDD"/>
<stop offset="0.72" stop-color="#4E9CDB"/>
<stop offset="0.93" stop-color="#5472D8"/>
<stop offset="1" stop-color="#5761D7"/>
</linearGradient>
<linearGradient id="paint3_linear_8308_7" x1="102516" y1="-22485.8" x2="121478" y2="8301.16" gradientUnits="userSpaceOnUse">
<stop stop-color="#654CB2"/>
<stop offset="0.02" stop-color="#40DDDA"/>
<stop offset="0.09" stop-color="#3AAEC0"/>
<stop offset="0.17" stop-color="#3484A9"/>
<stop offset="0.26" stop-color="#2F6195"/>
<stop offset="0.35" stop-color="#2B4486"/>
<stop offset="0.44" stop-color="#282E79"/>
<stop offset="0.54" stop-color="#261E71"/>
<stop offset="0.66" stop-color="#24156C"/>
<stop offset="0.82" stop-color="#24126A"/>
</linearGradient>
<linearGradient id="paint4_linear_8308_7" x1="18.8734" y1="52.0302" x2="297.065" y2="52.0302" gradientUnits="userSpaceOnUse">
<stop stop-color="#2B237C"/>
<stop offset="1" stop-color="#180D5B"/>
</linearGradient>
<linearGradient id="paint5_linear_8308_7" x1="19869.9" y1="28162.6" x2="42725.5" y2="28162.6" gradientUnits="userSpaceOnUse">
<stop stop-color="#2B237C"/>
<stop offset="1" stop-color="#180D5B"/>
</linearGradient>
<linearGradient id="paint6_linear_8308_7" x1="938.958" y1="1941.27" x2="943.069" y2="2000.98" gradientUnits="userSpaceOnUse">
<stop stop-color="#2B237D"/>
<stop offset="0.02" stop-color="#40DDDA"/>
<stop offset="0.09" stop-color="#3AAEC0"/>
<stop offset="0.17" stop-color="#3484A9"/>
<stop offset="0.26" stop-color="#2F6195"/>
<stop offset="0.35" stop-color="#2B4486"/>
<stop offset="0.44" stop-color="#282E79"/>
<stop offset="0.54" stop-color="#261E71"/>
<stop offset="0.66" stop-color="#24156C"/>
<stop offset="0.82" stop-color="#24126A"/>
</linearGradient>
<linearGradient id="paint7_linear_8308_7" x1="1067.55" y1="1862.98" x2="1071.53" y2="1922.7" gradientUnits="userSpaceOnUse">
<stop stop-color="#2C247E"/>
<stop offset="0.02" stop-color="#40DDDA"/>
<stop offset="0.09" stop-color="#3AAEC0"/>
<stop offset="0.17" stop-color="#3484A9"/>
<stop offset="0.26" stop-color="#2F6195"/>
<stop offset="0.35" stop-color="#2B4486"/>
<stop offset="0.44" stop-color="#282E79"/>
<stop offset="0.54" stop-color="#261E71"/>
<stop offset="0.66" stop-color="#24156C"/>
<stop offset="0.82" stop-color="#24126A"/>
</linearGradient>
<linearGradient id="paint8_linear_8308_7" x1="1368.15" y1="2327.07" x2="1375.74" y2="2411.26" gradientUnits="userSpaceOnUse">
<stop stop-color="#2B237C"/>
<stop offset="1" stop-color="#180D5B"/>
</linearGradient>
<linearGradient id="paint9_linear_8308_7" x1="2371.47" y1="3163.33" x2="2455.26" y2="3177.55" gradientUnits="userSpaceOnUse">
<stop stop-color="#2B237C"/>
<stop offset="1" stop-color="#180D5B"/>
</linearGradient>
<linearGradient id="paint10_linear_8308_7" x1="20850.3" y1="26045.2" x2="90614.6" y2="51356.8" gradientUnits="userSpaceOnUse">
<stop stop-color="#654DB3"/>
<stop offset="0.0899" stop-color="#40DDDA"/>
<stop offset="0.09" stop-color="#E9E9FE"/>
<stop offset="0.17" stop-color="#654DB3"/>
<stop offset="0.26" stop-color="#2F6195"/>
<stop offset="0.35" stop-color="#2B4486"/>
<stop offset="0.44" stop-color="#282E79"/>
<stop offset="0.54" stop-color="#261E71"/>
<stop offset="0.66" stop-color="#24156C"/>
<stop offset="0.82" stop-color="#24126A"/>
</linearGradient>
<linearGradient id="paint11_linear_8308_7" x1="3045.8" y1="4963.83" x2="3184.46" y2="4984.76" gradientUnits="userSpaceOnUse">
<stop stop-color="#2B237C"/>
<stop offset="1" stop-color="#180D5B"/>
</linearGradient>
<linearGradient id="paint12_linear_8308_7" x1="2846.49" y1="5118.92" x2="2985.15" y2="5139.85" gradientUnits="userSpaceOnUse">
<stop stop-color="#2B237C"/>
<stop offset="1" stop-color="#180D5B"/>
</linearGradient>
<linearGradient id="paint13_linear_8308_7" x1="2388.2" y1="5266.32" x2="2559.03" y2="5292.14" gradientUnits="userSpaceOnUse">
<stop stop-color="#2B237C"/>
<stop offset="1" stop-color="#180D5B"/>
</linearGradient>
<linearGradient id="paint14_linear_8308_7" x1="1458.94" y1="4376.31" x2="1483.03" y2="4668.35" gradientUnits="userSpaceOnUse">
<stop stop-color="#2C247D"/>
<stop offset="0.02" stop-color="#40DDDA"/>
<stop offset="0.09" stop-color="#3AAEC0"/>
<stop offset="0.17" stop-color="#3484A9"/>
<stop offset="0.26" stop-color="#2F6195"/>
<stop offset="0.35" stop-color="#2B4486"/>
<stop offset="0.44" stop-color="#282E79"/>
<stop offset="0.54" stop-color="#261E71"/>
<stop offset="0.66" stop-color="#24156C"/>
<stop offset="0.82" stop-color="#24126A"/>
</linearGradient>
<linearGradient id="paint15_linear_8308_7" x1="1810.09" y1="4634.14" x2="1833.01" y2="4935.3" gradientUnits="userSpaceOnUse">
<stop stop-color="#2B237C"/>
<stop offset="1" stop-color="#180D5B"/>
</linearGradient>
<linearGradient id="paint16_linear_8308_7" x1="14140.3" y1="13783.1" x2="14264.3" y2="17090.1" gradientUnits="userSpaceOnUse">
<stop stop-color="#91A2FA"/>
<stop offset="0.0199" stop-color="#91A2FA"/>
<stop offset="0.02" stop-color="#654DB3"/>
<stop offset="0.09" stop-color="#654DB3"/>
<stop offset="0.17" stop-color="#654DB3"/>
<stop offset="0.26" stop-color="#654CB3"/>
<stop offset="0.35" stop-color="#35068C"/>
<stop offset="0.44" stop-color="#35068C"/>
<stop offset="0.54" stop-color="#35068C"/>
<stop offset="0.66" stop-color="#35068C"/>
<stop offset="0.82" stop-color="#35068C"/>
</linearGradient>
</defs>
</svg>
