<svg width="100" height="124" viewBox="0 0 100 124" fill="none" xmlns="http://www.w3.org/2000/svg">
<g opacity="0.3">
<path opacity="0.3" d="M99.9033 94.8957V86.1866L97.495 84.8452C96.8153 88.9471 91.9794 91.6687 87.9397 92.2325L60.4003 108.329L48.3979 112.683L10.0408 92.874L10.9342 92.3491C7.65198 90.8328 5.88462 87.3141 4.11728 84.126L1.53427 85.6617L-3.05176e-05 86.0894V95.0318C0.0912498 96.0469 0.452983 97.0189 1.04737 97.8463C1.64177 98.6738 2.44708 99.3265 3.37932 99.7363L41.7947 121.937C44.3224 123.221 47.117 123.89 49.9516 123.89C52.7862 123.89 55.5809 123.221 58.1086 121.937L96.524 99.7363C97.4375 99.3215 98.2286 98.6777 98.8206 97.8671C99.4126 97.0566 99.7855 96.1067 99.9033 95.1096V94.8957Z" fill="url(#paint0_linear_8308_6)"/>
<path opacity="0.3" d="M87.939 92.2323L60.3995 108.329L49.9509 112.119V123.9C52.7909 123.959 55.5988 123.289 58.1078 121.956L96.5232 99.7556C97.4368 99.3408 98.2278 98.697 98.8198 97.8864C99.4119 97.0759 99.7848 96.126 99.9025 95.1289V94.9151V86.2059L97.7079 84.9812H97.4748C96.698 89.0053 91.9398 91.6686 87.939 92.2323Z" fill="#0F054C"/>
<path opacity="0.3" d="M41.7944 113.091L3.47611 90.8908C-1.02963 88.2858 -1.02963 84.0674 3.47611 81.4624L41.7944 59.1841C44.3221 57.9 47.1167 57.2307 49.9513 57.2307C52.7859 57.2307 55.5806 57.9 58.1083 59.1841L96.5237 81.3846C101.029 83.9896 101.029 88.2081 96.5237 90.813L58.1083 113.014C55.5867 114.31 52.7952 114.992 49.9606 115.006C47.126 115.019 44.3282 114.363 41.7944 113.091Z" fill="url(#paint1_linear_8308_6)"/>
<g opacity="0.3">
<path opacity="0.3" d="M41.7944 113.091L3.47611 90.8908C-1.02963 88.2858 -1.02963 84.0674 3.47611 81.4624L41.7944 59.1841C44.3221 57.9 47.1167 57.2307 49.9513 57.2307C52.7859 57.2307 55.5806 57.9 58.1083 59.1841L96.5237 81.3846C101.029 83.9896 101.029 88.2081 96.5237 90.813L58.1083 113.014C55.5867 114.31 52.7952 114.992 49.9606 115.006C47.126 115.019 44.3282 114.363 41.7944 113.091Z" fill="#0F054C"/>
</g>
</g>
<path d="M49.9526 86.4977C47.4305 86.5434 44.9382 85.9481 42.7085 84.7675L4.29308 62.567C3.38583 62.2481 2.59992 61.6551 2.04393 60.8698C1.48794 60.0845 1.18927 59.1458 1.18927 58.1833C1.18927 57.2208 1.48794 56.2821 2.04393 55.4968C2.59992 54.7115 3.38583 54.1185 4.29308 53.7996L42.7085 31.599C44.9559 30.4674 47.4368 29.8779 49.9526 29.8779C52.4684 29.8779 54.9493 30.4674 57.1967 31.599L95.6121 53.7996C96.5194 54.1185 97.3053 54.7115 97.8613 55.4968C98.4173 56.2821 98.7159 57.2208 98.7159 58.1833C98.7159 59.1458 98.4173 60.0845 97.8613 60.8698C97.3053 61.6551 96.5194 62.2481 95.6121 62.567L57.1967 84.7675C54.967 85.9481 52.4746 86.5434 49.9526 86.4977ZM49.9526 30.5299C47.5518 30.4882 45.1796 31.0567 43.058 32.1823L4.62321 54.3828C3.8256 54.6479 3.13167 55.1578 2.63988 55.8399C2.14809 56.5221 1.88343 57.342 1.88343 58.1833C1.88343 59.0245 2.14809 59.8444 2.63988 60.5266C3.13167 61.2088 3.8256 61.7187 4.62321 61.9838L43.058 84.1843C45.1987 85.2675 47.5637 85.8318 49.9623 85.8318C52.3609 85.8318 54.7259 85.2675 56.8666 84.1843L95.2819 61.9838C96.0795 61.7187 96.7735 61.2088 97.2653 60.5266C97.757 59.8444 98.0218 59.0245 98.0218 58.1833C98.0218 57.342 97.757 56.5221 97.2653 55.8399C96.7735 55.1578 96.0795 54.6479 95.2819 54.3828L56.8666 32.1823C54.738 31.0567 52.3596 30.4883 49.9526 30.5299Z" fill="#42E8E0"/>
<path opacity="0.4" d="M99.9033 49.6587V36.4978L97.495 35.1564C96.8153 39.2583 91.9794 41.9799 87.9397 42.5436L60.4003 58.6594L48.3979 63.0723L10.0408 43.2629L10.9342 42.7575C7.65198 41.2217 5.88462 37.7225 4.11728 34.5149L1.53427 36.0507L-3.05176e-05 36.4978V49.8725C0.123712 50.8834 0.509771 51.8442 1.11968 52.6593C1.72959 53.4744 2.54211 54.1155 3.4764 54.5187L41.7947 76.6803C44.3224 77.9645 47.117 78.6337 49.9516 78.6337C52.7862 78.6337 55.5809 77.9645 58.1086 76.6803L96.524 54.4798C97.4375 54.065 98.2286 53.4212 98.8206 52.6106C99.4126 51.8001 99.7855 50.8502 99.9033 49.8531V49.6198V49.6587Z" fill="#42E8E0"/>
<path d="M99.9033 37.9557V29.2466L97.495 27.9052C96.8153 32.007 91.9794 34.7286 87.9397 35.2924L60.4003 51.4082L48.3979 55.7433L10.0408 35.8562L10.9342 35.3507C7.65198 33.815 5.88462 30.3158 4.11728 27.1082L1.53427 28.6439L-3.05176e-05 29.091V38.014C0.101631 39.0284 0.467181 39.9983 1.06012 40.8272C1.65305 41.6561 2.4527 42.3149 3.37932 42.7379L41.7947 65.0162C44.3251 66.2914 47.1186 66.9556 49.9516 66.9556C52.7846 66.9556 55.5782 66.2914 58.1086 65.0162L96.524 42.8157C97.4375 42.4009 98.2286 41.7571 98.8206 40.9465C99.4126 40.136 99.7855 39.1861 99.9033 38.189V37.9557Z" fill="url(#paint2_linear_8308_6)"/>
<path opacity="0.3" d="M87.939 35.293L60.3995 51.4088L49.9509 55.1802V66.9608C52.7909 67.0194 55.5988 66.3502 58.1078 65.0168L96.5232 42.8163C97.4368 42.4015 98.2278 41.7577 98.8198 40.9471C99.4119 40.1366 99.7848 39.1867 99.9025 38.1896V37.9563V29.2472L97.7079 28.0225H97.4748C96.698 32.066 91.9398 34.7293 87.939 35.293Z" fill="#0F054C"/>
<path d="M10.9341 35.4282L47.349 14.4718C48.1598 14.0648 49.0542 13.8529 49.9612 13.8529C50.8682 13.8529 51.7627 14.0648 52.5734 14.4718L88.328 35.1366L87.9396 35.3699C91.9792 34.8061 96.8152 32.0845 97.4949 27.9826L57.351 5.6266L45.6982 2.53564L36.1818 8.13437L4.1366 27.2634C5.88452 30.3932 7.65186 33.9118 10.9341 35.4282Z" fill="url(#paint3_linear_8308_6)"/>
<path opacity="0.3" d="M49.9514 3.60498L45.6788 2.45801L36.1623 8.05673L4.1171 27.1857C5.88444 30.3933 7.6518 33.8925 10.934 35.4283L47.349 14.4719C48.145 14.0327 49.0427 13.8114 49.9514 13.8304V3.60498Z" fill="#0F054C"/>
<path d="M41.7944 56.1517L3.47611 33.9123C-1.02963 31.3267 -1.02963 27.0888 3.47611 24.4839L41.8915 2.28334C44.4219 1.00818 47.2155 0.343994 50.0485 0.343994C52.8814 0.343994 55.675 1.00818 58.2054 2.28334L96.6208 24.4839C101.127 27.0888 101.127 31.3267 96.6208 33.9123L58.2054 56.1128C55.6683 57.419 52.8576 58.1036 50.0046 58.1104C47.1515 58.1171 44.3377 57.4458 41.7944 56.1517ZM52.5732 5.60758C51.7625 5.20056 50.868 4.9886 49.961 4.9886C49.0541 4.9886 48.1596 5.20056 47.3489 5.60758L8.9335 27.8081C8.61345 27.912 8.33452 28.1147 8.13668 28.3871C7.93885 28.6595 7.83228 28.9876 7.83228 29.3244C7.83228 29.6612 7.93885 29.9893 8.13668 30.2617C8.33452 30.5341 8.61345 30.7368 8.9335 30.8407L47.3489 53.0412C48.1596 53.4483 49.0541 53.6602 49.961 53.6602C50.868 53.6602 51.7625 53.4483 52.5732 53.0412L90.9886 30.8407C91.2995 30.7275 91.5681 30.5213 91.7579 30.25C91.9477 29.9788 92.0495 29.6556 92.0495 29.3244C92.0495 28.9932 91.9477 28.6701 91.7579 28.3988C91.5681 28.1275 91.2995 27.9213 90.9886 27.8081L52.5732 5.60758Z" fill="url(#paint4_linear_8308_6)"/>
<path d="M90.988 27.7301L52.5727 5.52963C51.7619 5.1226 50.8675 4.91064 49.9605 4.91064C49.0535 4.91064 48.159 5.1226 47.3483 5.52963L8.93294 27.7301C7.96188 28.2939 7.65113 29.0715 7.96188 29.7908C8.18068 29.3765 8.51907 29.0378 8.93294 28.8188L47.3483 6.69602C48.159 6.289 49.0535 6.07706 49.9605 6.07706C50.8675 6.07706 51.7619 6.289 52.5727 6.69602L90.988 28.8965C91.3969 29.1157 91.729 29.4549 91.9397 29.8685C92.2504 29.0715 91.9397 28.2939 90.988 27.7301Z" fill="white"/>
<path d="M96.525 33.9119L58.1097 56.1124C55.582 57.3965 52.7873 58.0658 49.9527 58.0658C47.1181 58.0658 44.3234 57.3965 41.7958 56.1124L3.47746 33.9119C2.63888 33.5218 1.90132 32.9436 1.32202 32.2221C0.742714 31.5007 0.337225 30.6554 0.136992 29.7517C0.093845 30.8629 0.390584 31.9609 0.987504 32.8988C1.58443 33.8367 2.45309 34.57 3.47746 35.0005L41.7958 57.2399C44.3234 58.5241 47.1181 59.1933 49.9527 59.1933C52.7873 59.1933 55.582 58.5241 58.1097 57.2399L96.525 35.0394C97.5494 34.6089 98.4181 33.8756 99.015 32.9377C99.6119 31.9998 99.9087 30.9018 99.8655 29.7906C99.6599 30.6872 99.2519 31.5247 98.6729 32.2391C98.0939 32.9535 97.3592 33.5257 96.525 33.9119Z" fill="white"/>
<path d="M42.8817 55.5297L4.46636 33.3291C0.582095 31.0741 0.582095 27.4971 4.46636 25.1643L42.8817 2.96382C45.0704 1.84442 47.4932 1.26074 49.9511 1.26074C52.4089 1.26074 54.8318 1.84442 57.0205 2.96382L95.4358 25.1643C99.3201 27.4194 99.3201 30.9963 95.4358 33.3291L57.0205 55.5297C54.8318 56.6491 52.4089 57.2327 49.9511 57.2327C47.4932 57.2327 45.0704 56.6491 42.8817 55.5297ZM53.6411 4.98559C52.4989 4.40039 51.2342 4.09522 49.9511 4.09522C48.668 4.09522 47.4032 4.40039 46.261 4.98559L7.84565 27.1083C7.39774 27.2584 7.00828 27.5456 6.73234 27.9294C6.4564 28.3131 6.30797 28.7739 6.30797 29.2467C6.30797 29.7195 6.4564 30.1804 6.73234 30.5641C7.00828 30.9478 7.39774 31.235 7.84565 31.3851L46.2028 53.5857C47.3481 54.1603 48.6116 54.4596 49.8928 54.4596C51.174 54.4596 52.4375 54.1603 53.5828 53.5857L92.0177 31.3851C92.4656 31.235 92.855 30.9478 93.131 30.5641C93.4069 30.1804 93.5554 29.7195 93.5554 29.2467C93.5554 28.7739 93.4069 28.3131 93.131 27.9294C92.855 27.5456 92.4656 27.2584 92.0177 27.1083L53.6411 4.98559Z" fill="url(#paint5_linear_8308_6)"/>
<path opacity="0.4" d="M52.5742 5.52963C51.7635 5.1226 50.869 4.91064 49.962 4.91064C49.055 4.91064 48.1606 5.1226 47.3499 5.52963L8.93447 27.7301C8.61443 27.834 8.33549 28.0367 8.13766 28.3091C7.93982 28.5816 7.83325 28.9097 7.83325 29.2465C7.83325 29.5832 7.93982 29.9114 8.13766 30.1838C8.33549 30.4562 8.61443 30.6589 8.93447 30.7628L47.3499 52.9633C48.1606 53.3703 49.055 53.5823 49.962 53.5823C50.869 53.5823 51.7635 53.3703 52.5742 52.9633L90.9896 30.7628C91.3005 30.6496 91.5691 30.4433 91.7589 30.1721C91.9487 29.9008 92.0505 29.5776 92.0505 29.2465C92.0505 28.9153 91.9487 28.5921 91.7589 28.3208C91.5691 28.0496 91.3005 27.8433 90.9896 27.7301L52.5742 5.52963Z" fill="#42E8E0"/>
<defs>
<linearGradient id="paint0_linear_8308_6" x1="26107.7" y1="5053.86" x2="27859.1" y2="7594.14" gradientUnits="userSpaceOnUse">
<stop stop-color="#BCBEFF"/>
<stop offset="0.23" stop-color="#AAADF8"/>
<stop offset="0.68" stop-color="#7C83E5"/>
<stop offset="1" stop-color="#5761D7"/>
</linearGradient>
<linearGradient id="paint1_linear_8308_6" x1="25571.4" y1="7792.77" x2="30705.5" y2="7792.77" gradientUnits="userSpaceOnUse">
<stop stop-color="#E9E9FD"/>
<stop offset="0.36" stop-color="#D3D2F9"/>
<stop offset="0.71" stop-color="#C5C4F7"/>
<stop offset="1" stop-color="#C0BFF6"/>
</linearGradient>
<linearGradient id="paint2_linear_8308_6" x1="26107.7" y1="3840.11" x2="27864.1" y2="6382.26" gradientUnits="userSpaceOnUse">
<stop stop-color="#BCBEFF"/>
<stop offset="0.23" stop-color="#AAADF8"/>
<stop offset="0.68" stop-color="#7C83E5"/>
<stop offset="1" stop-color="#5761D7"/>
</linearGradient>
<linearGradient id="paint3_linear_8308_6" x1="14.7018" y1="8.85365" x2="85.41" y2="49.6382" gradientUnits="userSpaceOnUse">
<stop offset="0.24" stop-color="#5761D7"/>
<stop offset="0.39" stop-color="#7A82E5"/>
<stop offset="0.55" stop-color="#979CF0"/>
<stop offset="0.7" stop-color="#ACAFF8"/>
<stop offset="0.85" stop-color="#B8BAFD"/>
<stop offset="1" stop-color="#BCBEFF"/>
</linearGradient>
<linearGradient id="paint4_linear_8308_6" x1="25596.3" y1="6042.71" x2="30735.3" y2="6042.71" gradientUnits="userSpaceOnUse">
<stop stop-color="#E9E9FD"/>
<stop offset="0.36" stop-color="#D3D2F9"/>
<stop offset="0.71" stop-color="#C5C4F7"/>
<stop offset="1" stop-color="#C0BFF6"/>
</linearGradient>
<linearGradient id="paint5_linear_8308_6" x1="24878.1" y1="5855.93" x2="29704.3" y2="5855.93" gradientUnits="userSpaceOnUse">
<stop stop-color="#E9E9FD"/>
<stop offset="0.36" stop-color="#D3D2F9"/>
<stop offset="0.71" stop-color="#C5C4F7"/>
<stop offset="1" stop-color="#C0BFF6"/>
</linearGradient>
</defs>
</svg>
