<svg width="188" height="131" viewBox="0 0 188 131" fill="none" xmlns="http://www.w3.org/2000/svg">
<g clip-path="url(#clip0_8325_2)">
<path opacity="0.48" d="M188.074 59.0284H185.758C181.979 49.3741 173.566 40.2076 160.583 32.6061C124.009 11.4479 64.5757 11.4479 27.9407 32.6061C15.7493 39.6994 7.49986 48.2562 3.45639 57.3211H0.51012V69.3128C-0.221361 83.7231 8.92216 98.235 27.9407 109.231C64.5148 130.369 123.968 130.389 160.603 109.231C178.89 98.6415 188.074 84.8409 188.074 70.9184V59.0284Z" fill="url(#paint0_linear_8325_2)"/>
<path opacity="0.48" d="M188.074 59.0284H185.758C181.979 49.3741 173.566 40.2076 160.583 32.6061C124.009 11.4479 64.5757 11.4479 27.9407 32.6061C15.7493 39.6994 7.49986 48.2562 3.45639 57.3211H0.51012V69.3128C-0.221361 83.7231 8.92216 98.235 27.9407 109.231C64.5148 130.369 123.968 130.389 160.603 109.231C178.89 98.6415 188.074 84.8409 188.074 70.9184V59.0284Z" fill="url(#paint1_linear_8325_2)"/>
<path d="M188.074 54.3948H185.758C181.979 44.7405 173.566 35.574 160.583 27.9725C124.009 6.81434 64.5757 6.81434 27.9407 27.9725C15.7493 35.0659 7.49986 43.643 3.45639 52.6876H0.51012V64.6995C-0.221361 79.0895 8.92216 93.6218 27.9407 104.597C64.5148 125.755 123.968 125.755 160.603 104.597C178.89 94.0283 188.074 80.2074 188.074 66.3052V54.3948Z" fill="url(#paint2_linear_8325_2)"/>
<path opacity="0.48" d="M185.756 54.3746L185.33 53.3583V45.4316H180.413V44.8625C179.129 43.1434 177.738 41.5074 176.247 39.9642V45.4316H173.423V37.3017C172.122 36.1228 170.72 34.9643 169.237 33.8261V45.4316H166.433V31.7124C165.079 30.7774 163.677 29.8628 162.227 28.9685V45.4316H159.504V27.3425C158.143 26.5702 156.741 25.8385 155.298 25.1271V45.4519H152.515V23.8466C151.133 23.2166 149.731 22.6068 148.288 22.0174V45.4316H145.525V26.4279H141.217V45.4316H138.474V31.6514H134.207V45.4316H131.464V36.8749H127.197V45.4316H124.475V42.078H120.187V45.4316H68.3943V42.078H64.1273V45.4316H61.3842V36.8749H57.1172V45.4316H54.3742V31.6514H50.1276V45.4316H47.3845V26.4279H43.1379V45.4316H40.3745V21.9971C38.9318 22.5865 37.5298 23.1962 36.1278 23.8263V45.4316H33.3645V25.1068C31.9218 25.8181 30.5198 26.5498 29.1381 27.3222V45.4316H26.3544V28.9482C24.8914 29.8425 23.4894 30.7367 22.1484 31.6717V45.4316H19.3037V33.7042C17.8204 34.8424 16.4184 36.0212 15.118 37.2001V45.4316H12.2937V39.9236C10.792 41.4623 9.39375 43.0986 8.10798 44.8219V45.4316H3.19083V52.7079H1.15894V72.8499C1.97068 76.6123 3.37675 80.2211 5.32429 83.5407V70.9596H8.14865V87.809C9.43934 89.5283 10.8374 91.1643 12.3343 92.7072V70.9596H15.2399V95.3495C16.5404 96.5283 17.9424 97.6869 19.4256 98.825V70.98H22.2297V100.959C23.5843 101.894 24.9863 102.809 26.4357 103.703V70.98H29.2194V105.309C30.6011 106.081 32.003 106.833 33.4457 107.544V70.9596H36.2091V108.845C37.6111 109.496 39.0131 110.105 40.4557 110.674V70.98H43.2191V111.752C44.6008 112.28 46.0231 112.788 47.4657 113.256V70.98H50.2088V114.15L54.4555 115.39V70.98H57.1985V116.101L61.4655 117.077V70.98H64.2086V117.727L68.4756 118.499V70.98H71.1983V118.845L75.4856 119.414V70.98H78.188V119.76C79.6307 119.902 81.053 120.024 82.4956 120.125V70.98H85.1777V120.247L89.5056 120.43V70.98H92.1877V120.491H96.5157V70.98H99.1774V120.43L103.505 120.247V70.98H106.188V120.065C107.63 119.963 109.073 119.841 110.495 119.699V70.919H113.197V119.333C114.64 119.17 116.083 118.987 117.505 118.764V70.98H120.208V118.418L124.495 117.646V70.8987H127.218V116.995C128.66 116.691 130.083 116.365 131.485 116V70.98H134.228V115.369C135.67 114.983 137.072 114.577 138.495 114.13V70.98H141.217V113.256C142.66 112.768 144.062 112.28 145.464 111.752V70.98H148.227V110.654C149.67 110.085 151.072 109.475 152.454 108.845V70.98H155.237V107.565C156.68 106.853 158.082 106.101 159.443 105.329V70.98H162.247V103.683C163.71 102.788 165.112 101.874 166.453 100.939V70.98H169.257V98.9063C170.741 97.7681 172.143 96.6096 173.443 95.4105V71.0206H176.267V92.7276C177.763 91.1889 179.154 89.5526 180.433 87.8293V71.0206H183.278V83.5407C185.232 80.188 186.638 76.5447 187.443 72.7482V54.4559L185.756 54.3746Z" fill="url(#paint3_linear_8325_2)"/>
<path d="M94.2617 108.56C146.062 108.56 188.054 84.309 188.054 54.394C188.054 24.4791 146.062 0.228271 94.2617 0.228271C42.4617 0.228271 0.469482 24.4791 0.469482 54.394C0.469482 84.309 42.4617 108.56 94.2617 108.56Z" fill="url(#paint4_linear_8325_2)"/>
<g opacity="0.05">
<path opacity="0.05" d="M-54.106 54.1921L-55 53.6637L89.7114 -29.8918L90.6055 -29.3837L-54.106 54.1921Z" fill="#97A6FD"/>
<path opacity="0.05" d="M-51.5469 55.655L-52.441 55.1469L92.2704 -28.429L93.1441 -27.9208L-51.5469 55.655Z" fill="#97A6FD"/>
<path opacity="0.05" d="M-49.0078 57.1182L-49.9019 56.6101L94.8096 -26.9657L95.7036 -26.4576L-49.0078 57.1182Z" fill="#97A6FD"/>
<path opacity="0.05" d="M-46.4649 58.6015L-47.3386 58.0934L97.3728 -25.4824L98.2465 -24.9743L-46.4649 58.6015Z" fill="#97A6FD"/>
<path opacity="0.05" d="M-43.9055 60.0653L-44.7996 59.5571L99.9119 -24.0187L100.806 -23.5106L-43.9055 60.0653Z" fill="#97A6FD"/>
<path opacity="0.05" d="M-41.3657 61.549L-42.2395 61.0409L102.472 -22.5349L103.346 -22.0268L-41.3657 61.549Z" fill="#97A6FD"/>
<path opacity="0.05" d="M-38.8064 63.0123L-39.7004 62.5042L105.011 -21.0717L105.905 -20.5635L-38.8064 63.0123Z" fill="#97A6FD"/>
<path opacity="0.05" d="M-36.2667 64.4956L-37.1404 63.9671L107.571 -19.5884L108.445 -19.0803L-36.2667 64.4956Z" fill="#97A6FD"/>
<path opacity="0.05" d="M-33.7073 65.9597L-34.6013 65.4516L110.11 -18.1243L111.004 -17.6161L-33.7073 65.9597Z" fill="#97A6FD"/>
<path opacity="0.05" d="M-31.1676 67.422L-32.0413 66.9139L112.65 -16.662L113.544 -16.1335L-31.1676 67.422Z" fill="#97A6FD"/>
<path opacity="0.05" d="M-28.6061 68.9057L-29.5001 68.3976L115.211 -15.1782L116.105 -14.6701L-28.6061 68.9057Z" fill="#97A6FD"/>
<path opacity="0.05" d="M-26.0641 70.3707L-26.9379 69.8626L117.753 -13.7133L118.647 -13.1848L-26.0641 70.3707Z" fill="#97A6FD"/>
<path opacity="0.05" d="M-23.5048 71.8535L-24.3988 71.3454L120.313 -12.2305L121.186 -11.7223L-23.5048 71.8535Z" fill="#97A6FD"/>
<path opacity="0.05" d="M-20.9661 73.3177L-21.8398 72.8096L122.851 -10.7662L123.745 -10.2581L-20.9661 73.3177Z" fill="#97A6FD"/>
<path opacity="0.05" d="M-18.4067 74.8025L-19.3008 74.274L125.411 -9.28149L126.284 -8.77337L-18.4067 74.8025Z" fill="#97A6FD"/>
<path opacity="0.05" d="M-15.8677 76.2634L-16.7617 75.7553L127.95 -7.82056L128.844 -7.31244L-15.8677 76.2634Z" fill="#97A6FD"/>
<path opacity="0.05" d="M-13.3054 77.7472L-14.1995 77.2187L130.512 -6.33679L131.386 -5.82867L-13.3054 77.7472Z" fill="#97A6FD"/>
<path opacity="0.05" d="M-10.7664 79.2121L-11.6604 78.704L133.051 -4.87183L133.945 -4.3637L-10.7664 79.2121Z" fill="#97A6FD"/>
<path opacity="0.05" d="M-8.22548 80.6744L-9.09924 80.1663L135.612 -3.40955L136.486 -2.88111L-8.22548 80.6744Z" fill="#97A6FD"/>
<path opacity="0.05" d="M-5.66614 82.1584L-6.56018 81.6503L138.151 -1.92554L139.045 -1.41742L-5.66614 82.1584Z" fill="#97A6FD"/>
<path opacity="0.05" d="M-3.12642 83.6226L-4.00012 83.1145L140.711 -0.461304L141.585 0.0671315L-3.12642 83.6226Z" fill="#97A6FD"/>
<path opacity="0.05" d="M-0.567022 85.1054L-1.46106 84.5973L143.25 1.02148L144.144 1.52961L-0.567022 85.1054Z" fill="#97A6FD"/>
<path opacity="0.05" d="M1.97367 86.5693L1.09998 86.0612L145.811 2.48535L146.685 2.99347L1.97367 86.5693Z" fill="#97A6FD"/>
<path opacity="0.05" d="M4.53308 88.0531L3.63904 87.5246L148.35 3.96912L149.245 4.47724L4.53308 88.0531Z" fill="#97A6FD"/>
<path opacity="0.05" d="M7.07506 89.5153L6.20129 89.0072L150.913 5.4314L151.786 5.93952L7.07506 89.5153Z" fill="#97A6FD"/>
<path opacity="0.05" d="M9.63439 90.9798L8.74036 90.4717L153.452 6.89587L154.346 7.42434L9.63439 90.9798Z" fill="#97A6FD"/>
<path opacity="0.05" d="M12.1731 92.4636L11.2994 91.9555L155.991 8.37964L156.885 8.88776L12.1731 92.4636Z" fill="#97A6FD"/>
<path opacity="0.05" d="M14.7325 93.9264L13.8385 93.4182L158.55 9.84241L159.444 10.3708L14.7325 93.9264Z" fill="#97A6FD"/>
<path opacity="0.05" d="M17.2753 95.4096L16.4016 94.9015L161.113 11.3257L161.987 11.8338L17.2753 95.4096Z" fill="#97A6FD"/>
<path opacity="0.05" d="M19.8347 96.8733L18.9407 96.3651L163.652 12.7893L164.546 13.2974L19.8347 96.8733Z" fill="#97A6FD"/>
<path opacity="0.05" d="M22.3725 98.357L21.4988 97.8286L166.19 14.2731L167.084 14.7812L22.3725 98.357Z" fill="#97A6FD"/>
<path opacity="0.05" d="M24.936 99.8208L24.042 99.3126L168.753 15.7368L169.647 16.2449L24.936 99.8208Z" fill="#97A6FD"/>
<path opacity="0.05" d="M27.4751 101.305L26.5811 100.777L171.292 17.2211L172.187 17.7292L27.4751 101.305Z" fill="#97A6FD"/>
<path opacity="0.05" d="M30.0342 102.767L29.1401 102.259L173.852 18.6833L174.746 19.1915L30.0342 102.767Z" fill="#97A6FD"/>
<path opacity="0.05" d="M32.5739 104.252L31.7002 103.724L176.391 20.1478L177.285 20.6763L32.5739 104.252Z" fill="#97A6FD"/>
<path opacity="0.05" d="M35.1354 105.716L34.2413 105.208L178.953 21.6321L179.826 22.1402L35.1354 105.716Z" fill="#97A6FD"/>
<path opacity="0.05" d="M37.6744 107.177L36.7804 106.669L181.492 23.0933L182.386 23.6217L37.6744 107.177Z" fill="#97A6FD"/>
<path opacity="0.05" d="M40.2356 108.661L39.3416 108.153L184.053 24.5775L184.927 25.0856L40.2356 108.661Z" fill="#97A6FD"/>
<path opacity="0.05" d="M42.7747 110.126L41.8806 109.618L186.592 26.042L187.486 26.5704L42.7747 110.126Z" fill="#97A6FD"/>
<path opacity="0.05" d="M45.3347 111.608L44.4407 111.1L189.152 27.5243L190.026 28.0324L45.3347 111.608Z" fill="#97A6FD"/>
<path opacity="0.05" d="M47.8738 113.073L46.9797 112.565L191.691 28.989L192.585 29.4971L47.8738 113.073Z" fill="#97A6FD"/>
<path opacity="0.05" d="M50.4146 114.557L49.5409 114.028L194.252 30.4728L195.126 30.9809L50.4146 114.557Z" fill="#97A6FD"/>
<path opacity="0.05" d="M52.974 116.02L52.08 115.512L196.791 31.9358L197.685 32.4439L52.974 116.02Z" fill="#97A6FD"/>
<path opacity="0.05" d="M55.5148 117.504L54.6411 116.975L199.352 33.4197L200.226 33.9278L55.5148 117.504Z" fill="#97A6FD"/>
<path opacity="0.05" d="M58.0742 118.967L57.1802 118.459L201.892 34.8834L202.786 35.3915L58.0742 118.967Z" fill="#97A6FD"/>
<path opacity="0.05" d="M60.6138 120.429L59.7401 119.921L204.452 36.3455L205.325 36.8739L60.6138 120.429Z" fill="#97A6FD"/>
<path opacity="0.05" d="M63.1732 121.914L62.2792 121.406L206.991 37.8302L207.885 38.3383L63.1732 121.914Z" fill="#97A6FD"/>
<path opacity="0.05" d="M65.7162 123.378L64.8425 122.87L209.554 39.2939L210.428 39.8224L65.7162 123.378Z" fill="#97A6FD"/>
<path opacity="0.05" d="M68.2756 124.861L67.3816 124.332L212.093 40.7767L212.987 41.2849L68.2756 124.861Z" fill="#97A6FD"/>
<path opacity="0.05" d="M70.8153 126.324L69.9417 125.816L214.633 42.24L215.527 42.7481L70.8153 126.324Z" fill="#97A6FD"/>
<path opacity="0.05" d="M73.3747 127.809L72.4807 127.28L217.192 43.7249L218.066 44.233L73.3747 127.809Z" fill="#97A6FD"/>
<path opacity="0.05" d="M75.9156 129.271L75.0419 128.763L219.733 45.1871L220.627 45.6953L75.9156 129.271Z" fill="#97A6FD"/>
<path opacity="0.05" d="M78.475 130.735L77.5809 130.227L222.292 46.6509L223.166 47.1793L78.475 130.735Z" fill="#97A6FD"/>
<path opacity="0.05" d="M81.0136 132.219L80.1399 131.711L224.831 48.1351L225.725 48.6433L81.0136 132.219Z" fill="#97A6FD"/>
<path opacity="0.05" d="M83.5752 133.682L82.6812 133.173L227.393 49.5977L228.266 50.1261L83.5752 133.682Z" fill="#97A6FD"/>
<path opacity="0.05" d="M86.1143 135.165L85.2202 134.657L229.932 51.0809L230.826 51.5891L86.1143 135.165Z" fill="#97A6FD"/>
<path opacity="0.05" d="M88.6549 136.629L87.7812 136.121L232.493 52.5452L233.366 53.0533L88.6549 136.629Z" fill="#97A6FD"/>
<path opacity="0.05" d="M91.2144 138.113L90.3203 137.584L235.032 54.0286L235.926 54.5367L91.2144 138.113Z" fill="#97A6FD"/>
<path opacity="0.05" d="M93.7541 139.575L92.8804 139.067L237.592 55.4913L238.465 55.9995L93.7541 139.575Z" fill="#97A6FD"/>
<path opacity="0.05" d="M96.3135 141.059L95.4194 140.531L240.131 56.9753L241.025 57.4835L96.3135 141.059Z" fill="#97A6FD"/>
<path opacity="0.05" d="M98.8543 142.523L97.9806 142.015L242.692 58.4391L243.566 58.9472L98.8543 142.523Z" fill="#97A6FD"/>
</g>
<path opacity="0.05" d="M94.2623 102.362C140.137 102.362 177.326 80.8863 177.326 54.395C177.326 27.9038 140.137 6.42834 94.2623 6.42834C48.3874 6.42834 11.1985 27.9038 11.1985 54.395C11.1985 80.8863 48.3874 102.362 94.2623 102.362Z" fill="url(#paint5_linear_8325_2)"/>
<path d="M94.2617 131.04C146.062 131.04 188.054 106.789 188.054 76.874C188.054 46.9591 146.062 22.7083 94.2617 22.7083C42.4617 22.7083 0.469482 46.9591 0.469482 76.874C0.469482 106.789 42.4617 131.04 94.2617 131.04Z" fill="url(#paint6_linear_8325_2)"/>
<path opacity="0.3" d="M94.3052 0.228271C73.0516 0.228271 51.798 4.29324 34.4862 12.6468L6.50708 73.4994C12.0556 81.4826 19.3974 88.0539 27.9435 92.6861C34.2334 96.2645 40.8713 99.1928 47.7545 101.426L94.3052 0.228271Z" fill="#97A6FD"/>
<path opacity="0.3" d="M120.576 2.38293L72.4408 107.076C84.0761 108.659 95.8489 108.972 107.552 108.011L151.867 11.6511C141.875 7.23897 131.359 4.12429 120.576 2.38293V2.38293Z" fill="#97A6FD"/>
<path opacity="0.48" d="M188.074 59.0284H185.758C181.979 49.3741 173.566 40.2076 160.583 32.6061C124.009 11.4479 64.5757 11.4479 27.9407 32.6061C15.7493 39.6994 7.49986 48.2562 3.45639 57.3211H0.51012V69.3128C-0.221361 83.7231 8.92216 98.235 27.9407 109.231C64.5148 130.369 123.968 130.389 160.603 109.231C178.89 98.6415 188.074 84.8409 188.074 70.9184V59.0284Z" fill="url(#paint7_linear_8325_2)"/>
<path d="M35.5613 23.7056C68.0716 4.96608 120.576 4.96608 153.025 23.7056C168.528 32.6485 176.615 44.2744 177.306 56.0018C178.038 43.1971 169.951 30.2502 153.025 20.474C120.515 1.73443 67.9903 1.73443 35.5613 20.474C18.6153 30.2502 10.5283 43.1971 11.2801 56.0018C11.9303 44.2744 20.0173 32.6485 35.5613 23.7056Z" fill="url(#paint8_linear_8325_2)"/>
<path d="M127.016 35.6957L46.0244 25.6755L63.3768 72.443L116.125 66.1423L127.016 35.6957Z" fill="url(#paint9_linear_8325_2)"/>
<path opacity="0.4" d="M63.3765 72.4429L85.5444 38.2769L116.124 66.1423L63.3765 72.4429Z" fill="#0F1C75"/>
<path opacity="0.4" d="M127.016 35.6965L85.5449 38.2778L116.125 66.1432L127.016 35.6965Z" fill="#0F1C75"/>
<path d="M71.0388 76.8539L145.487 83.1139L134.657 40.1066L123.746 63.724L71.0388 76.8539Z" fill="url(#paint10_linear_8325_2)"/>
<path opacity="0.4" d="M123.745 63.724L145.487 83.1139L134.657 40.1066L123.745 63.724Z" fill="#0F1C75"/>
</g>
<defs>
<linearGradient id="paint0_linear_8325_2" x1="-13.6928" y1="70.9794" x2="172.043" y2="70.9794" gradientUnits="userSpaceOnUse">
<stop stop-color="#97A6FD"/>
<stop offset="0.15" stop-color="#97A6FD"/>
<stop offset="0.33" stop-color="#2B3AA5"/>
<stop offset="0.52" stop-color="#495FD5"/>
<stop offset="0.72" stop-color="#97A6FD"/>
<stop offset="0.93" stop-color="#5489FF"/>
<stop offset="1" stop-color="#5778FF"/>
</linearGradient>
<linearGradient id="paint1_linear_8325_2" x1="-13.6928" y1="70.9794" x2="172.043" y2="70.9794" gradientUnits="userSpaceOnUse">
<stop stop-color="#97A6FD"/>
<stop offset="0.15" stop-color="#97A6FD"/>
<stop offset="0.33" stop-color="#2B3AA5"/>
<stop offset="0.52" stop-color="#495FD5"/>
<stop offset="0.72" stop-color="#97A6FD"/>
<stop offset="0.93" stop-color="#5489FF"/>
<stop offset="1" stop-color="#5778FF"/>
</linearGradient>
<linearGradient id="paint2_linear_8325_2" x1="61865" y1="19115.2" x2="79013.9" y2="19115.2" gradientUnits="userSpaceOnUse">
<stop stop-color="#97A6FD"/>
<stop offset="0.02" stop-color="#411D97"/>
<stop offset="0.09" stop-color="#3AC5E2"/>
<stop offset="0.17" stop-color="#349BCD"/>
<stop offset="0.26" stop-color="#2F78BB"/>
<stop offset="0.35" stop-color="#2B5BAC"/>
<stop offset="0.44" stop-color="#2845A1"/>
<stop offset="0.54" stop-color="#263599"/>
<stop offset="0.66" stop-color="#242C94"/>
<stop offset="0.82" stop-color="#242993"/>
</linearGradient>
<linearGradient id="paint3_linear_8325_2" x1="62791.9" y1="17623.9" x2="79868.5" y2="17623.9" gradientUnits="userSpaceOnUse">
<stop stop-color="#97A6FC"/>
<stop offset="0.15" stop-color="#7366C9"/>
<stop offset="0.33" stop-color="#7E7AD9"/>
<stop offset="0.52" stop-color="#6368C6"/>
<stop offset="0.72" stop-color="#4EB3FF"/>
<stop offset="0.93" stop-color="#5489FF"/>
<stop offset="1" stop-color="#5778FF"/>
</linearGradient>
<linearGradient id="paint4_linear_8325_2" x1="101427" y1="-27662.7" x2="106590" y2="-19275.5" gradientUnits="userSpaceOnUse">
<stop stop-color="#7366C8"/>
<stop offset="0.02" stop-color="#40F4FA"/>
<stop offset="0.09" stop-color="#3AC5E2"/>
<stop offset="0.17" stop-color="#349BCD"/>
<stop offset="0.26" stop-color="#2F78BB"/>
<stop offset="0.35" stop-color="#2B5BAC"/>
<stop offset="0.44" stop-color="#2845A1"/>
<stop offset="0.54" stop-color="#263599"/>
<stop offset="0.66" stop-color="#242C94"/>
<stop offset="0.82" stop-color="#242993"/>
</linearGradient>
<linearGradient id="paint5_linear_8325_2" x1="79.6326" y1="-18.8151" x2="126.067" y2="213.188" gradientUnits="userSpaceOnUse">
<stop stop-color="#424FAE"/>
<stop offset="0.02" stop-color="#40F4FA"/>
<stop offset="0.09" stop-color="#3AC5E2"/>
<stop offset="0.17" stop-color="#349BCD"/>
<stop offset="0.26" stop-color="#2F78BB"/>
<stop offset="0.35" stop-color="#2B5BAC"/>
<stop offset="0.44" stop-color="#2845A1"/>
<stop offset="0.54" stop-color="#263599"/>
<stop offset="0.66" stop-color="#242C94"/>
<stop offset="0.82" stop-color="#242993"/>
</linearGradient>
<linearGradient id="paint6_linear_8325_2" x1="100694" y1="-26010.9" x2="105856" y2="-17623.6" gradientUnits="userSpaceOnUse">
<stop stop-color="#654DB3"/>
<stop offset="0.02" stop-color="#40F4FA"/>
<stop offset="0.09" stop-color="#3AC5E2"/>
<stop offset="0.17" stop-color="#349BCD"/>
<stop offset="0.26" stop-color="#2F78BB"/>
<stop offset="0.35" stop-color="#2B5BAC"/>
<stop offset="0.44" stop-color="#2845A1"/>
<stop offset="0.54" stop-color="#263599"/>
<stop offset="0.66" stop-color="#242C94"/>
<stop offset="0.82" stop-color="#242993"/>
</linearGradient>
<linearGradient id="paint7_linear_8325_2" x1="-13.6928" y1="70.9794" x2="172.043" y2="70.9794" gradientUnits="userSpaceOnUse">
<stop stop-color="#654DB3"/>
<stop offset="0.15" stop-color="#654DB3"/>
<stop offset="0.33" stop-color="#654DB3"/>
<stop offset="0.52" stop-color="#654DB3"/>
<stop offset="0.72" stop-color="#654DB3"/>
<stop offset="0.93" stop-color="#654DB3"/>
<stop offset="1" stop-color="#654DB3"/>
</linearGradient>
<linearGradient id="paint8_linear_8325_2" x1="11.2192" y1="31.2055" x2="177.326" y2="31.2055" gradientUnits="userSpaceOnUse">
<stop stop-color="#2B3AA5"/>
<stop offset="1" stop-color="#182484"/>
</linearGradient>
<linearGradient id="paint9_linear_8325_2" x1="119970" y1="-65721.9" x2="121369" y2="-63496.3" gradientUnits="userSpaceOnUse">
<stop stop-color="#7E7AD9"/>
<stop offset="0.02" stop-color="#40F4FA"/>
<stop offset="0.09" stop-color="#3AC5E2"/>
<stop offset="0.17" stop-color="#349BCD"/>
<stop offset="0.26" stop-color="#2F78BB"/>
<stop offset="0.35" stop-color="#2B5BAC"/>
<stop offset="0.44" stop-color="#2845A1"/>
<stop offset="0.54" stop-color="#263599"/>
<stop offset="0.66" stop-color="#242C94"/>
<stop offset="0.82" stop-color="#242993"/>
</linearGradient>
<linearGradient id="paint10_linear_8325_2" x1="111013" y1="-59796.5" x2="111751" y2="-58774.8" gradientUnits="userSpaceOnUse">
<stop stop-color="#7F7BDA"/>
<stop offset="0.078125" stop-color="#2B237C"/>
<stop offset="0.177083" stop-color="#2B237C"/>
<stop offset="0.26" stop-color="#2B237C"/>
<stop offset="0.35" stop-color="#2B5BAC"/>
<stop offset="0.375" stop-color="#2B237C"/>
<stop offset="0.44" stop-color="#2845A1"/>
<stop offset="0.54" stop-color="#263599"/>
<stop offset="0.66" stop-color="#242C94"/>
<stop offset="0.82" stop-color="#2B237C"/>
</linearGradient>
<clipPath id="clip0_8325_2">
<rect width="188" height="131" fill="white"/>
</clipPath>
</defs>
</svg>
